w4.ufo
<glyph name="exclam" format="2">
  <advance width="236"/>
  <unicode hex="0021"/>
  <outline>
    <contour>
      <point x="118" y="614" type="curve" smooth="yes"/>
      <point x="149" y="614"/>
      <point x="174" y="589"/>
      <point x="174" y="558" type="curve" smooth="yes"/>
      <point x="174" y="544"/>
      <point x="171" y="515"/>
      <point x="169" y="498" type="curve" smooth="yes"/>
      <point x="128" y="172" type="line"/>
      <point x="108" y="172" type="line"/>
      <point x="67" y="498" type="line" smooth="yes"/>
      <point x="64" y="520"/>
      <point x="62" y="542"/>
      <point x="62" y="558" type="curve" smooth="yes"/>
      <point x="62" y="589"/>
      <point x="87" y="614"/>
    </contour>
    <contour>
      <point x="178" y="41" type="curve" smooth="yes"/>
      <point x="178" y="8"/>
      <point x="151" y="-19"/>
      <point x="118" y="-19" type="curve" smooth="yes"/>
      <point x="85" y="-19"/>
      <point x="58" y="8"/>
      <point x="58" y="41" type="curve" smooth="yes"/>
      <point x="58" y="74"/>
      <point x="85" y="100"/>
      <point x="118" y="100" type="curve" smooth="yes"/>
      <point x="151" y="100"/>
      <point x="178" y="74"/>
    </contour>
  </outline>
</glyph>
<glyph name="quotedbl" format="2">
  <advance width="268"/>
  <unicode hex="0022"/>
  <outline>
    <contour>
      <point x="180.594" y="458.437" type="line"/>
      <point x="157.081" y="613.259"/>
      <point x="148.277" y="639.539"/>
      <point x="146.463" y="644.953" type="curve" smooth="yes"/>
      <point x="146.208" y="645.715"/>
      <point x="146.091" y="646.063"/>
      <point x="146.091" y="646.299" type="curve" smooth="yes"/>
      <point x="146.091" y="652.298"/>
      <point x="162.775" y="657.342"/>
      <point x="184.691" y="657.342" type="curve" smooth="yes"/>
      <point x="206.839" y="657.342"/>
      <point x="240.725" y="645.837"/>
      <point x="240.725" y="623.011" type="curve" smooth="yes"/>
      <point x="240.725" y="621.052"/>
      <point x="240.475" y="619.01"/>
      <point x="239.947" y="616.884" type="curve" smooth="yes"/>
      <point x="200.574" y="458.437" type="line"/>
    </contour>
    <contour>
      <point x="62.3115" y="458.437" type="line"/>
      <point x="38.793" y="613.298"/>
      <point x="29.9924" y="639.549"/>
      <point x="28.1801" y="644.955" type="curve" smooth="yes"/>
      <point x="27.9253" y="645.715"/>
      <point x="27.8086" y="646.063"/>
      <point x="27.8086" y="646.299" type="curve" smooth="yes"/>
      <point x="27.8086" y="652.298"/>
      <point x="44.4941" y="657.342"/>
      <point x="66.4092" y="657.342" type="curve" smooth="yes"/>
      <point x="88.5582" y="657.342"/>
      <point x="122.443" y="645.837"/>
      <point x="122.443" y="623.01" type="curve" smooth="yes"/>
      <point x="122.443" y="621.052"/>
      <point x="122.194" y="619.009"/>
      <point x="121.666" y="616.884" type="curve" smooth="yes"/>
      <point x="82.293" y="458.437" type="line"/>
    </contour>
  </outline>
</glyph>
<glyph name="numbersign" format="2">
  <advance width="590"/>
  <unicode hex="0023"/>
  <outline>
    <contour>
      <point x="461.525" y="588.718" type="line"/>
      <point x="496.992" y="588.718" type="line"/>
      <point x="474.19" y="481.063" type="line"/>
      <point x="586.472" y="481.063" type="line"/>
      <point x="571.949" y="412.451" type="line"/>
      <point x="459.657" y="412.451" type="line"/>
      <point x="412.929" y="191.839" type="line"/>
      <point x="533.459" y="191.839" type="line"/>
      <point x="518.915" y="123.227" type="line"/>
      <point x="398.396" y="123.227" type="line"/>
      <point x="372.295" y="0" type="line"/>
      <point x="336.828" y="0" type="line"/>
      <point x="362.929" y="123.227" type="line"/>
      <point x="195.114" y="123.227" type="line"/>
      <point x="169.014" y="0" type="line"/>
      <point x="133.547" y="0" type="line"/>
      <point x="159.647" y="123.227" type="line"/>
      <point x="47.7744" y="123.227" type="line"/>
      <point x="62.3193" y="191.839" type="line"/>
      <point x="174.18" y="191.839" type="line"/>
      <point x="220.908" y="412.451" type="line"/>
      <point x="100.81" y="412.451" type="line"/>
      <point x="115.332" y="481.063" type="line"/>
      <point x="235.441" y="481.063" type="line"/>
      <point x="258.243" y="588.718" type="line"/>
      <point x="293.71" y="588.718" type="line"/>
      <point x="270.908" y="481.063" type="line"/>
      <point x="438.723" y="481.063" type="line"/>
    </contour>
    <contour>
      <point x="424.19" y="412.451" type="line"/>
      <point x="256.375" y="412.451" type="line"/>
      <point x="209.647" y="191.839" type="line"/>
      <point x="377.462" y="191.839" type="line"/>
    </contour>
  </outline>
</glyph>
<glyph name="ampersand" format="2">
  <advance width="705"/>
  <unicode hex="0026"/>
  <outline>
    <contour>
      <point x="214.361" y="414.095" type="curve"/>
      <point x="161.882" y="382.058"/>
      <point x="140.986" y="359.724"/>
      <point x="128.808" y="346.707" type="curve" smooth="yes"/>
      <point x="120.174" y="337.478"/>
      <point x="115.921" y="332.933"/>
      <point x="107.901" y="332.933" type="curve" smooth="yes"/>
      <point x="93.2178" y="332.933"/>
      <point x="53.1895" y="403.369"/>
      <point x="53.1895" y="419.414" type="curve" smooth="yes"/>
      <point x="53.1895" y="426.36"/>
      <point x="54.7861" y="432.627"/>
      <point x="58.1113" y="438.261" type="curve"/>
      <point x="67.7998" y="424.769"/>
      <point x="76.8564" y="419.208"/>
      <point x="93.3281" y="419.208" type="curve" smooth="yes"/>
      <point x="123.407" y="419.208"/>
      <point x="170.495" y="431.918"/>
      <point x="222.62" y="452.076" type="curve"/>
      <point x="231.488" y="492.725"/>
      <point x="240.351" y="537.478"/>
      <point x="240.351" y="554.8" type="curve" smooth="yes"/>
      <point x="240.351" y="574.836"/>
      <point x="234.207" y="591.237"/>
      <point x="214.736" y="604.51" type="curve"/>
      <point x="219.09" y="606.809"/>
      <point x="224.086" y="607.848"/>
      <point x="229.512" y="607.848" type="curve" smooth="yes"/>
      <point x="269.579" y="607.848"/>
      <point x="333.003" y="551.184"/>
      <point x="333.003" y="527.106" type="curve" smooth="yes"/>
      <point x="333.003" y="522.244"/>
      <point x="329.411" y="519.574"/>
      <point x="323.022" y="514.824" type="curve" smooth="yes"/>
      <point x="312.523" y="507.02"/>
      <point x="294.47" y="493.6"/>
      <point x="272.384" y="455.61" type="curve"/>
      <point x="288.563" y="436.7"/>
      <point x="302.943" y="410.613"/>
      <point x="302.943" y="400.836" type="curve" smooth="yes"/>
      <point x="302.943" y="395.353"/>
      <point x="299.721" y="393.462"/>
      <point x="292.889" y="389.455" type="curve" smooth="yes"/>
      <point x="281.775" y="382.935"/>
      <point x="261.11" y="370.812"/>
      <point x="229.231" y="328.495" type="curve"/>
      <point x="228.131" y="318.993"/>
      <point x="227.534" y="309.443"/>
      <point x="227.523" y="299.931" type="curve"/>
      <point x="307.723" y="374.71"/>
      <point x="377.681" y="418.98"/>
      <point x="470.677" y="418.98" type="curve" smooth="yes"/>
      <point x="576.614" y="418.98"/>
      <point x="664.836" y="359.86"/>
      <point x="664.836" y="227.436" type="curve" smooth="yes"/>
      <point x="664.836" y="81.4268"/>
      <point x="548.644" y="2.63184"/>
      <point x="371.207" y="-7.28613" type="curve"/>
      <point x="365.461" y="6.32617" type="line"/>
      <point x="496.249" y="35.7754"/>
      <point x="576.025" y="105.078"/>
      <point x="576.025" y="221.804" type="curve" smooth="yes"/>
      <point x="576.025" y="312.137"/>
      <point x="516.855" y="377.068"/>
      <point x="429.715" y="377.068" type="curve" smooth="yes"/>
      <point x="355.686" y="377.068"/>
      <point x="298.543" y="328.994"/>
      <point x="230.951" y="224.559" type="curve"/>
      <point x="232.075" y="211.243"/>
      <point x="240.837" y="140.824"/>
      <point x="246.693" y="93.7525" type="curve" smooth="yes"/>
      <point x="249.734" y="69.3166"/>
      <point x="251.991" y="51.1721"/>
      <point x="251.991" y="50.5732" type="curve" smooth="yes"/>
      <point x="251.991" y="19.2168"/>
      <point x="228.986" y="-25.4258"/>
      <point x="216.502" y="-25.4258" type="curve" smooth="yes"/>
      <point x="200.434" y="-25.4258"/>
      <point x="187.11" y="1.11053"/>
      <point x="177.925" y="27.0488" type="curve" smooth="yes"/>
      <point x="172.7" y="41.8024"/>
      <point x="161.502" y="73.4247"/>
      <point x="124.291" y="118.016" type="curve"/>
      <point x="118.698" y="101.137"/>
      <point x="114.777" y="87.1939"/>
      <point x="111.603" y="75.9088" type="curve" smooth="yes"/>
      <point x="103.886" y="48.4651"/>
      <point x="100.589" y="36.7402"/>
      <point x="88.4062" y="36.7402" type="curve" smooth="yes"/>
      <point x="73.1924" y="36.7402"/>
      <point x="35.5039" y="98.9229"/>
      <point x="35.5039" y="137.041" type="curve" smooth="yes"/>
      <point x="35.5039" y="147.358"/>
      <point x="47.8658" y="163.516"/>
      <point x="71.4561" y="194.349" type="curve" smooth="yes"/>
      <point x="101.039" y="233.014"/>
      <point x="148.278" y="294.758"/>
      <point x="210.939" y="397.004" type="curve" smooth="yes"/>
      <point x="212.048" y="402.82"/>
      <point x="213.193" y="408.499"/>
    </contour>
    <contour>
      <point x="189.584" y="108.901" type="curve"/>
      <point x="189.59" y="109.066"/>
      <point x="189.716" y="110.708"/>
      <point x="189.931" y="113.523" type="curve" smooth="yes"/>
      <point x="191.461" y="133.511"/>
      <point x="197.515" y="212.637"/>
      <point x="197.515" y="241.771" type="curve" smooth="yes"/>
      <point x="197.515" y="256.04"/>
      <point x="197.761" y="269.315"/>
      <point x="198.218" y="281.743" type="curve"/>
      <point x="188.408" y="265.134"/>
      <point x="158.635" y="211.885"/>
      <point x="132.65" y="141.822" type="curve"/>
      <point x="182.41" y="111.951"/>
      <point x="182.41" y="111.951"/>
    </contour>
  </outline>
</glyph>
<glyph name="asterisk" format="2">
  <advance width="351"/>
  <unicode hex="002A"/>
  <outline>
    <contour>
      <point x="28.9414" y="513.282" type="curve" smooth="yes"/>
      <point x="28.9414" y="522.708"/>
      <point x="28.9414" y="528.565"/>
      <point x="41.7765" y="528.565" type="curve" smooth="yes"/>
      <point x="57.298" y="528.565"/>
      <point x="91.5897" y="520"/>
      <point x="167.351" y="498.823" type="curve"/>
      <point x="166.983" y="483.788" type="line"/>
      <point x="48.4951" y="449.34" type="line"/>
      <point x="41.3963" y="462.33"/>
      <point x="28.9414" y="493.947"/>
    </contour>
    <contour>
      <point x="101.391" y="357.376" type="curve" smooth="yes"/>
      <point x="99.7813" y="358.923"/>
      <point x="98.3878" y="360.263"/>
      <point x="98.3878" y="363.183" type="curve" smooth="yes"/>
      <point x="98.3878" y="371.914"/>
      <point x="110.844" y="394.772"/>
      <point x="167.226" y="479.543" type="curve"/>
      <point x="181.41" y="474.546" type="line"/>
      <point x="177.548" y="351.211" type="line"/>
      <point x="169.899" y="349.769"/>
      <point x="156.893" y="348.51"/>
      <point x="143.605" y="348.51" type="curve" smooth="yes"/>
      <point x="126.231" y="348.51"/>
      <point x="108.377" y="350.663"/>
    </contour>
    <contour>
      <point x="263.379" y="379.791" type="curve" smooth="yes"/>
      <point x="248.209" y="396.376"/>
      <point x="218.193" y="432.206"/>
      <point x="185.522" y="473.452" type="curve"/>
      <point x="194.652" y="485.397" type="line"/>
      <point x="310.764" y="443.621" type="line" smooth="yes"/>
      <point x="310.677" y="442.951"/>
      <point x="299.295" y="372.382"/>
      <point x="276.533" y="372.382" type="curve" smooth="yes"/>
      <point x="272.505" y="372.382"/>
      <point x="268.12" y="374.592"/>
    </contour>
    <contour>
      <point x="310.102" y="534.085" type="curve" smooth="yes"/>
      <point x="289.62" y="524.789"/>
      <point x="246.274" y="507.299"/>
      <point x="196.962" y="488.969" type="curve"/>
      <point x="188.406" y="501.35" type="line"/>
      <point x="264.019" y="598.859" type="line"/>
      <point x="280.263" y="591.174"/>
      <point x="319.01" y="565.938"/>
      <point x="322.02" y="549.104" type="curve" smooth="yes"/>
      <point x="323.167" y="542.921"/>
      <point x="321.504" y="539.267"/>
    </contour>
    <contour>
      <point x="165.166" y="642.312" type="curve" smooth="yes"/>
      <point x="174.597" y="642.312"/>
      <point x="176.647" y="636.311"/>
      <point x="177.783" y="626.192" type="curve" smooth="yes"/>
      <point x="180.276" y="603.859"/>
      <point x="183.551" y="557.223"/>
      <point x="185.729" y="504.647" type="curve"/>
      <point x="171.323" y="500.354" type="line"/>
      <point x="101.935" y="602.393" type="line"/>
      <point x="113.82" y="614.968"/>
      <point x="147.52" y="642.312"/>
    </contour>
  </outline>
</glyph>
<glyph name="comma" format="2">
  <advance width="173"/>
  <unicode hex="002C"/>
  <outline>
    <contour>
      <point x="82" y="100" type="curve" smooth="yes"/>
      <point x="132" y="100"/>
      <point x="157" y="67"/>
      <point x="157" y="13" type="curve" smooth="yes"/>
      <point x="157" y="-45"/>
      <point x="117" y="-99"/>
      <point x="48" y="-134" type="curve"/>
      <point x="26" y="-110" type="line"/>
      <point x="79" y="-79"/>
      <point x="99" y="-46"/>
      <point x="99" y="-20" type="curve" smooth="yes"/>
      <point x="99" y="-9"/>
      <point x="95" y="-4"/>
      <point x="85" y="-2" type="curve" smooth="yes"/>
      <point x="46" y="5"/>
      <point x="28" y="23"/>
      <point x="28" y="52" type="curve" smooth="yes"/>
      <point x="28" y="75"/>
      <point x="50" y="100"/>
    </contour>
  </outline>
</glyph>
<glyph name="hyphen" format="2">
  <advance width="493"/>
  <unicode hex="002D"/>
  <outline>
    <contour>
      <point x="94" y="208" type="line"/>
      <point x="401" y="208" type="line"/>
      <point x="401" y="146" type="line"/>
      <point x="94" y="146" type="line"/>
    </contour>
  </outline>
</glyph>
<glyph name="period" format="2">
  <advance width="178"/>
  <unicode hex="002E"/>
  <outline>
    <contour>
      <point x="150" y="41" type="curve" smooth="yes"/>
      <point x="150" y="8"/>
      <point x="123" y="-19"/>
      <point x="90" y="-19" type="curve" smooth="yes"/>
      <point x="57" y="-19"/>
      <point x="30" y="8"/>
      <point x="30" y="41" type="curve" smooth="yes"/>
      <point x="30" y="74"/>
      <point x="57" y="100"/>
      <point x="90" y="100" type="curve" smooth="yes"/>
      <point x="123" y="100"/>
      <point x="150" y="74"/>
    </contour>
  </outline>
</glyph>
<glyph name="slash" format="2">
  <advance width="217"/>
  <unicode hex="002F"/>
  <outline>
    <contour>
      <point x="161.193" y="588.718" type="line"/>
      <point x="216.642" y="588.718" type="line"/>
      <point x="55.4482" y="0" type="line"/>
      <point x="0" y="0" type="line"/>
    </contour>
  </outline>
</glyph>
<glyph name="one" format="2">
  <advance width="270"/>
  <unicode hex="0031"/>
  <outline>
    <contour>
      <point x="24" y="0" type="line"/>
      <point x="24" y="24" type="line"/>
      <point x="63" y="24" type="line" smooth="yes"/>
      <point x="87" y="24"/>
      <point x="95" y="28"/>
      <point x="95" y="45" type="curve" smooth="yes"/>
      <point x="95" y="358" type="line" smooth="yes"/>
      <point x="95" y="375"/>
      <point x="87" y="378"/>
      <point x="63" y="378" type="curve" smooth="yes"/>
      <point x="24" y="378" type="line"/>
      <point x="24" y="402" type="line"/>
      <point x="247" y="402" type="line"/>
      <point x="247" y="378" type="line"/>
      <point x="209" y="378" type="line" smooth="yes"/>
      <point x="185" y="378"/>
      <point x="176" y="375"/>
      <point x="176" y="358" type="curve" smooth="yes"/>
      <point x="176" y="45" type="line" smooth="yes"/>
      <point x="176" y="28"/>
      <point x="185" y="24"/>
      <point x="209" y="24" type="curve" smooth="yes"/>
      <point x="247" y="24" type="line"/>
      <point x="247" y="0" type="line"/>
    </contour>
  </outline>
</glyph>
<glyph name="six" format="2">
  <advance width="450"/>
  <unicode hex="0036"/>
  <outline>
    <contour>
      <point x="123" y="222" type="curve"/>
      <point x="125" y="91"/>
      <point x="180" y="26"/>
      <point x="242" y="26" type="curve" smooth="yes"/>
      <point x="299" y="26"/>
      <point x="343" y="81"/>
      <point x="343" y="154" type="curve" smooth="yes"/>
      <point x="343" y="213"/>
      <point x="314" y="282"/>
      <point x="243" y="282" type="curve" smooth="yes"/>
      <point x="201" y="282"/>
      <point x="158" y="258"/>
    </contour>
    <contour>
      <point x="125" y="262" type="curve"/>
      <point x="166" y="304"/>
      <point x="220" y="333"/>
      <point x="278" y="333" type="curve" smooth="yes"/>
      <point x="376" y="333"/>
      <point x="422" y="250"/>
      <point x="422" y="178" type="curve" smooth="yes"/>
      <point x="422" y="83"/>
      <point x="342" y="-10"/>
      <point x="234" y="-10" type="curve" smooth="yes"/>
      <point x="132" y="-10"/>
      <point x="37" y="74"/>
      <point x="37" y="233" type="curve" smooth="yes"/>
      <point x="37" y="376"/>
      <point x="114" y="544"/>
      <point x="383" y="598" type="curve"/>
      <point x="387" y="578" type="line"/>
      <point x="206" y="529"/>
      <point x="134" y="404"/>
    </contour>
  </outline>
</glyph>
<glyph name="seven" format="2">
  <advance width="398"/>
  <unicode hex="0037"/>
  <outline>
    <contour>
      <point x="52" y="402" type="curve"/>
      <point x="392" y="402" type="line"/>
      <point x="392" y="387" type="line"/>
      <point x="286" y="165" type="line" smooth="yes"/>
      <point x="223" y="31"/>
      <point x="172" y="-129"/>
      <point x="159" y="-212" type="curve"/>
      <point x="97" y="-212" type="line"/>
      <point x="115" y="-130"/>
      <point x="171" y="0"/>
      <point x="246" y="158" type="curve" smooth="yes"/>
      <point x="331" y="338" type="line"/>
      <point x="101" y="338" type="line" smooth="yes"/>
      <point x="75" y="338"/>
      <point x="62" y="335"/>
      <point x="53" y="319" type="curve" smooth="yes"/>
      <point x="45" y="306" type="line"/>
      <point x="29" y="306" type="line"/>
      <point x="46" y="373" type="line"/>
      <point x="46" y="374" type="line"/>
      <point x="46.7685" y="377.842"/>
      <point x="47.6845" y="381.537"/>
      <point x="48.5781" y="385.141" type="curve" smooth="yes"/>
      <point x="50.0101" y="390.916"/>
      <point x="51.3842" y="396.458"/>
    </contour>
  </outline>
</glyph>
<glyph name="semicolon" format="2">
  <advance width="178"/>
  <unicode hex="003B"/>
  <outline>
    <contour>
      <point x="150" y="323" type="curve" smooth="yes"/>
      <point x="150" y="290"/>
      <point x="123" y="264"/>
      <point x="90" y="264" type="curve" smooth="yes"/>
      <point x="57" y="264"/>
      <point x="30" y="290"/>
      <point x="30" y="323" type="curve" smooth="yes"/>
      <point x="30" y="356"/>
      <point x="57" y="383"/>
      <point x="90" y="383" type="curve" smooth="yes"/>
      <point x="123" y="383"/>
      <point x="150" y="356"/>
    </contour>
    <contour>
      <point x="84" y="100" type="curve" smooth="yes"/>
      <point x="134" y="100"/>
      <point x="159" y="67"/>
      <point x="159" y="13" type="curve" smooth="yes"/>
      <point x="159" y="-45"/>
      <point x="119" y="-99"/>
      <point x="50" y="-134" type="curve"/>
      <point x="28" y="-110" type="line"/>
      <point x="81" y="-79"/>
      <point x="102" y="-46"/>
      <point x="102" y="-20" type="curve" smooth="yes"/>
      <point x="102" y="-9"/>
      <point x="96" y="-4"/>
      <point x="86" y="-2" type="curve" smooth="yes"/>
      <point x="47" y="5"/>
      <point x="30" y="23"/>
      <point x="30" y="52" type="curve" smooth="yes"/>
      <point x="30" y="75"/>
      <point x="52" y="100"/>
    </contour>
  </outline>
</glyph>
<glyph name="less" format="2">
  <advance width="424"/>
  <unicode hex="003C"/>
  <outline>
    <contour>
      <point x="21.2314" y="208.948" type="line"/>
      <point x="384.228" y="422.811" type="line"/>
      <point x="384.228" y="357.792" type="line"/>
      <point x="111.108" y="199.02" type="line"/>
      <point x="384.228" y="40.2461" type="line"/>
      <point x="384.228" y="-24.7725" type="line"/>
      <point x="21.2314" y="189.076" type="line"/>
    </contour>
  </outline>
</glyph>
<glyph name="greater" format="2">
  <advance width="424"/>
  <unicode hex="003E"/>
  <outline>
    <contour>
      <point x="403.179" y="208.948" type="line"/>
      <point x="403.179" y="189.076" type="line"/>
      <point x="40.1826" y="-24.7725" type="line"/>
      <point x="40.1826" y="40.2461" type="line"/>
      <point x="313.302" y="199.02" type="line"/>
      <point x="40.1826" y="357.792" type="line"/>
      <point x="40.1826" y="422.811" type="line"/>
    </contour>
  </outline>
</glyph>
<glyph name="at" format="2">
  <advance width="784"/>
  <unicode hex="0040"/>
  <outline>
    <contour>
      <point x="393.865" y="545.61" type="curve" smooth="yes"/>
      <point x="472.862" y="545.61"/>
      <point x="547.673" y="523.669"/>
      <point x="622.483" y="462.402" type="curve"/>
      <point x="594.777" y="438.613" type="line"/>
      <point x="528.685" y="494.613"/>
      <point x="460.937" y="516.155"/>
      <point x="392.637" y="516.155" type="curve" smooth="yes"/>
      <point x="238.182" y="516.155"/>
      <point x="78.2168" y="394.609"/>
      <point x="78.2168" y="195.639" type="curve" smooth="yes"/>
      <point x="78.2168" y="-3.33301"/>
      <point x="238.881" y="-121.982"/>
      <point x="391.879" y="-121.982" type="curve" smooth="yes"/>
      <point x="544.885" y="-121.982"/>
      <point x="705.541" y="-4.8291"/>
      <point x="705.541" y="195.639" type="curve" smooth="yes"/>
      <point x="705.541" y="305.66"/>
      <point x="642.339" y="366.66"/>
      <point x="538.683" y="366.66" type="curve" smooth="yes"/>
      <point x="352.778" y="366.66" type="line"/>
      <point x="387.604" y="361.299"/>
      <point x="421.726" y="352.311"/>
      <point x="468.065" y="339.895" type="curve" smooth="yes"/>
      <point x="557.31" y="315.983"/>
      <point x="600.317" y="257.878"/>
      <point x="600.317" y="186.521" type="curve" smooth="yes"/>
      <point x="600.317" y="86.8643"/>
      <point x="523.388" y="-2.37891"/>
      <point x="394.505" y="-2.37891" type="curve" smooth="yes"/>
      <point x="276.305" y="-2.37891"/>
      <point x="198.485" y="77.0635"/>
      <point x="198.485" y="163.45" type="curve" smooth="yes"/>
      <point x="198.485" y="253.747"/>
      <point x="266.495" y="298.604"/>
      <point x="331.831" y="298.604" type="curve" smooth="yes"/>
      <point x="376.701" y="298.604"/>
      <point x="420.31" y="277.448"/>
      <point x="439.764" y="235.326" type="curve"/>
      <point x="415.825" y="220.583" type="line"/>
      <point x="403.014" y="240.414"/>
      <point x="378.095" y="252.11"/>
      <point x="353.297" y="252.11" type="curve" smooth="yes"/>
      <point x="318.23" y="252.11"/>
      <point x="283.404" y="228.721"/>
      <point x="283.404" y="171.874" type="curve" smooth="yes"/>
      <point x="283.404" y="79.3994"/>
      <point x="361.451" y="37.1221"/>
      <point x="410.234" y="37.1221" type="curve" smooth="yes"/>
      <point x="479.88" y="37.1221"/>
      <point x="517.076" y="85.5156"/>
      <point x="517.076" y="155.978" type="curve" smooth="yes"/>
      <point x="517.076" y="269.207"/>
      <point x="437.606" y="290.106"/>
      <point x="318.926" y="321.316" type="curve" smooth="yes"/>
      <point x="270.525" y="334.045"/>
      <point x="217.921" y="347.878"/>
      <point x="161.569" y="366.66" type="curve"/>
      <point x="161.569" y="378.34" type="line"/>
      <point x="235.556" y="406.163" type="line"/>
      <point x="250.57" y="404.23"/>
      <point x="276.474" y="402.552"/>
      <point x="298.633" y="402.552" type="curve" smooth="yes"/>
      <point x="529.03" y="402.552" type="line" smooth="yes"/>
      <point x="660.51" y="402.552"/>
      <point x="743.567" y="335.357"/>
      <point x="743.567" y="196.313" type="curve" smooth="yes"/>
      <point x="743.567" y="0.943359"/>
      <point x="592.615" y="-151.245"/>
      <point x="392.534" y="-151.245" type="curve" smooth="yes"/>
      <point x="192.452" y="-151.245"/>
      <point x="40.1973" y="-0.495117"/>
      <point x="40.1973" y="196.313" type="curve" smooth="yes"/>
      <point x="40.1973" y="393.122"/>
      <point x="192.298" y="545.61"/>
    </contour>
  </outline>
</glyph>
<glyph name="bracketleft" format="2">
  <advance width="310"/>
  <unicode hex="005B"/>
  <outline>
    <contour>
      <point x="79.0996" y="592.61" type="line"/>
      <point x="107.563" y="590.664"/>
      <point x="160.973" y="588.718"/>
      <point x="224.984" y="588.718" type="curve" smooth="yes"/>
      <point x="283.345" y="588.718" type="line"/>
      <point x="283.345" y="556.719" type="line"/>
      <point x="160.362" y="553.068" type="line"/>
      <point x="160.362" y="-176.149" type="line"/>
      <point x="283.345" y="-179.799" type="line"/>
      <point x="283.345" y="-211.798" type="line"/>
      <point x="224.984" y="-211.798" type="line" smooth="yes"/>
      <point x="160.973" y="-211.798"/>
      <point x="107.57" y="-213.744"/>
      <point x="79.0996" y="-215.691" type="curve"/>
    </contour>
  </outline>
</glyph>
<glyph name="c" format="2">
  <advance width="472"/>
  <unicode hex="0063"/>
  <outline>
    <contour>
      <point x="198.72" y="77.9648" type="line"/>
      <point x="198.861" y="77.9586"/>
      <point x="200.541" y="77.8599"/>
      <point x="203.395" y="77.6923" type="curve" smooth="yes"/>
      <point x="223.078" y="76.5365"/>
      <point x="298.585" y="72.1025"/>
      <point x="309.992" y="72.1025" type="curve" smooth="yes"/>
      <point x="329.434" y="72.1025"/>
      <point x="336.406" y="77.7861"/>
      <point x="336.406" y="94.0879" type="curve" smooth="yes"/>
      <point x="336.406" y="366.664" type="line"/>
      <point x="334.57" y="366.664" type="line"/>
      <point x="135.585" y="366.66" type="line"/>
      <point x="135.585" y="-204.017" type="line"/>
      <point x="113.851" y="-215.75"/>
      <point x="81.4102" y="-227.296"/>
      <point x="54.3242" y="-233.054" type="curve"/>
      <point x="54.3242" y="353.826" type="line"/>
      <point x="12.5967" y="398.587" type="line"/>
      <point x="35.5811" y="411.521"/>
      <point x="86.1348" y="436.436"/>
      <point x="113.33" y="446.39" type="curve"/>
      <point x="139.836" y="402.553" type="line"/>
      <point x="319.207" y="402.556" type="line"/>
      <point x="355.549" y="415.455"/>
      <point x="385.558" y="424.418"/>
      <point x="421.796" y="432.692" type="curve"/>
      <point x="419.731" y="415.487"/>
      <point x="417.667" y="369.191"/>
      <point x="417.667" y="331.715" type="curve" smooth="yes"/>
      <point x="417.667" y="78.6191" type="line" smooth="yes"/>
      <point x="417.667" y="19.5879"/>
      <point x="403.777" y="-3.44824"/>
      <point x="305.076" y="-14.04" type="curve"/>
      <point x="290.208" y="39.8457"/>
      <point x="269.818" y="49.8857"/>
      <point x="198.72" y="58.5" type="curve"/>
    </contour>
  </outline>
</glyph>
<glyph name="d" format="2">
  <advance width="552"/>
  <unicode hex="0064"/>
  <outline>
    <contour>
      <point x="245.31" y="376.557" type="curve" smooth="yes"/>
      <point x="172.474" y="376.557"/>
      <point x="116.866" y="293.082"/>
      <point x="116.866" y="213.665" type="curve" smooth="yes"/>
      <point x="116.866" y="75.0371"/>
      <point x="224.67" y="29.2793"/>
      <point x="284.596" y="29.2793" type="curve" smooth="yes"/>
      <point x="359.725" y="29.2793"/>
      <point x="428.578" y="83.166"/>
      <point x="428.578" y="213.994" type="curve" smooth="yes"/>
      <point x="428.578" y="350.482"/>
      <point x="334.955" y="376.557"/>
    </contour>
    <contour>
      <point x="124.389" y="454.708" type="line"/>
      <point x="173.366" y="430.148"/>
      <point x="244.943" y="411.209"/>
      <point x="312.025" y="411.209" type="curve" smooth="yes"/>
      <point x="346.34" y="411.209" type="line" smooth="yes"/>
      <point x="432.934" y="411.209"/>
      <point x="518.876" y="348.719"/>
      <point x="518.876" y="234.783" type="curve" smooth="yes"/>
      <point x="518.876" y="114.796"/>
      <point x="460.513" y="41.1973"/>
      <point x="375.309" y="11.3916" type="curve" smooth="yes"/>
      <point x="340.101" y="-0.923828"/>
      <point x="284.15" y="-10.6455"/>
      <point x="248.72" y="-10.6455" type="curve" smooth="yes"/>
      <point x="123.497" y="-10.6455"/>
      <point x="34.0566" y="74.3838"/>
      <point x="34.0566" y="183.323" type="curve" smooth="yes"/>
      <point x="34.0566" y="281.903"/>
      <point x="78.3779" y="349.834"/>
      <point x="159.406" y="379.594" type="curve"/>
      <point x="123.968" y="382.746"/>
      <point x="70.4082" y="397.113"/>
      <point x="38.5732" y="409.737" type="curve"/>
      <point x="38.5732" y="425.313" type="line"/>
    </contour>
  </outline>
</glyph>
<glyph name="g" format="2">
  <advance width="472"/>
  <unicode hex="0067"/>
  <outline>
    <contour>
      <point x="198.721" y="77.9658" type="line"/>
      <point x="198.862" y="77.9596"/>
      <point x="200.538" y="77.8611"/>
      <point x="203.386" y="77.6938" type="curve" smooth="yes"/>
      <point x="223.052" y="76.5388"/>
      <point x="298.569" y="72.1035"/>
      <point x="309.992" y="72.1035" type="curve" smooth="yes"/>
      <point x="329.434" y="72.1035"/>
      <point x="336.406" y="77.7871"/>
      <point x="336.406" y="94.0889" type="curve" smooth="yes"/>
      <point x="336.406" y="366.665" type="line"/>
      <point x="334.57" y="366.665" type="line"/>
      <point x="135.586" y="366.661" type="line"/>
      <point x="135.586" y="-204.016" type="line"/>
      <point x="113.851" y="-215.749"/>
      <point x="81.4102" y="-227.296"/>
      <point x="54.3242" y="-233.054" type="curve"/>
      <point x="54.3242" y="353.826" type="line"/>
      <point x="12.5967" y="398.588" type="line"/>
      <point x="35.5811" y="411.521"/>
      <point x="86.1348" y="436.436"/>
      <point x="113.33" y="446.39" type="curve"/>
      <point x="139.836" y="402.553" type="line"/>
      <point x="319.208" y="402.557" type="line"/>
      <point x="355.549" y="415.456"/>
      <point x="385.558" y="424.418"/>
      <point x="421.797" y="432.692" type="curve"/>
      <point x="419.732" y="415.488"/>
      <point x="417.667" y="369.192"/>
      <point x="417.667" y="331.716" type="curve" smooth="yes"/>
      <point x="417.667" y="78.6191" type="line" smooth="yes"/>
      <point x="417.667" y="19.5889"/>
      <point x="403.777" y="-3.44824"/>
      <point x="305.077" y="-14.0391" type="curve"/>
      <point x="290.208" y="39.8467"/>
      <point x="269.818" y="49.8857"/>
      <point x="198.721" y="58.501" type="curve"/>
    </contour>
    <contour>
      <point x="296.089" y="547.458" type="curve" smooth="yes"/>
      <point x="296.089" y="518.062"/>
      <point x="272.259" y="494.231"/>
      <point x="242.862" y="494.231" type="curve" smooth="yes"/>
      <point x="213.466" y="494.231"/>
      <point x="189.636" y="518.062"/>
      <point x="189.636" y="547.458" type="curve" smooth="yes"/>
      <point x="189.636" y="576.854"/>
      <point x="213.466" y="600.685"/>
      <point x="242.862" y="600.685" type="curve" smooth="yes"/>
      <point x="272.259" y="600.685"/>
      <point x="296.089" y="576.854"/>
    </contour>
  </outline>
</glyph>
<glyph name="i" format="2">
  <advance width="366"/>
  <unicode hex="0069"/>
  <outline>
    <contour>
      <point x="165.959" y="293.38" type="curve"/>
      <point x="165.959" y="9.12988" type="line"/>
      <point x="150.002" y="0.516602"/>
      <point x="126.188" y="-7.95996"/>
      <point x="106.304" y="-12.1865" type="curve"/>
      <point x="106.304" y="244.021" type="line"/>
      <point x="79.8633" y="273.606" type="line"/>
      <point x="102.757" y="280.75"/>
      <point x="141.682" y="290.063"/>
    </contour>
    <contour>
      <point x="54.1514" y="-133.832" type="line"/>
      <point x="122.793" y="-136.869"/>
      <point x="186.662" y="-139.694"/>
      <point x="204.347" y="-139.694" type="curve" smooth="yes"/>
      <point x="223.79" y="-139.694"/>
      <point x="230.765" y="-134.007"/>
      <point x="230.765" y="-117.705" type="curve" smooth="yes"/>
      <point x="230.765" y="366.666" type="line"/>
      <point x="38.1279" y="366.662" type="line" smooth="yes"/>
      <point x="25.835" y="366.662"/>
      <point x="23.7832" y="371.949"/>
      <point x="31.3018" y="379.23" type="curve" smooth="yes"/>
      <point x="56.9395" y="404.053"/>
      <point x="86.6533" y="430.102"/>
      <point x="114.587" y="452.596" type="curve"/>
      <point x="156.631" y="402.554" type="line"/>
      <point x="213.564" y="402.558" type="line"/>
      <point x="249.907" y="415.457"/>
      <point x="279.915" y="424.42"/>
      <point x="316.154" y="432.693" type="curve"/>
      <point x="314.087" y="415.489"/>
      <point x="312.02" y="369.193"/>
      <point x="312.02" y="331.717" type="curve" smooth="yes"/>
      <point x="312.02" y="-133.178" type="line" smooth="yes"/>
      <point x="312.02" y="-192.209"/>
      <point x="298.13" y="-215.245"/>
      <point x="199.433" y="-225.837" type="curve"/>
      <point x="184.406" y="-171.379"/>
      <point x="183.75" y="-169"/>
      <point x="54.1514" y="-153.296" type="curve"/>
    </contour>
  </outline>
</glyph>
<glyph name="k" format="2">
  <advance width="190"/>
  <unicode hex="006B"/>
  <outline>
    <contour>
      <point x="135.58" y="432.689" type="curve"/>
      <point x="135.58" y="8.24805" type="line"/>
      <point x="113.848" y="-3.48535"/>
      <point x="81.4053" y="-15.0312"/>
      <point x="54.3174" y="-20.7891" type="curve"/>
      <point x="54.3174" y="365.452" type="line"/>
      <point x="18.3057" y="405.754" type="line"/>
      <point x="49.4844" y="415.484"/>
      <point x="102.512" y="428.172"/>
    </contour>
    <contour>
      <point x="199.454" y="547.458" type="curve" smooth="yes"/>
      <point x="199.454" y="518.079"/>
      <point x="177.87" y="494.264"/>
      <point x="151.241" y="494.264" type="curve" smooth="yes"/>
      <point x="124.616" y="494.264"/>
      <point x="103.03" y="518.079"/>
      <point x="103.03" y="547.458" type="curve" smooth="yes"/>
      <point x="103.03" y="576.836"/>
      <point x="124.616" y="600.652"/>
      <point x="151.241" y="600.652" type="curve" smooth="yes"/>
      <point x="177.87" y="600.652"/>
      <point x="199.454" y="576.836"/>
    </contour>
    <contour>
      <point x="86.8682" y="547.458" type="curve" smooth="yes"/>
      <point x="86.8682" y="518.079"/>
      <point x="65.2773" y="494.263"/>
      <point x="38.6562" y="494.263" type="curve" smooth="yes"/>
      <point x="12.0283" y="494.263"/>
      <point x="-9.55566" y="518.079"/>
      <point x="-9.55566" y="547.458" type="curve" smooth="yes"/>
      <point x="-9.55566" y="576.836"/>
      <point x="12.0283" y="600.652"/>
      <point x="38.6562" y="600.652" type="curve" smooth="yes"/>
      <point x="65.2773" y="600.652"/>
      <point x="86.8682" y="576.836"/>
    </contour>
  </outline>
</glyph>
<glyph name="l" format="2">
  <advance width="190"/>
  <unicode hex="006C"/>
  <outline>
    <contour>
      <point x="165.006" y="-108.06" type="line"/>
      <point x="164.37" y="-109.542"/>
      <point x="101.219" y="-253.331"/>
      <point x="94.9375" y="-253.331" type="curve" smooth="yes"/>
      <point x="88.6548" y="-253.331"/>
      <point x="25.5043" y="-109.542"/>
      <point x="24.8682" y="-108.06" type="curve"/>
      <point x="37.0752" y="-108.06" type="line"/>
      <point x="94.9375" y="-137.097" type="line"/>
      <point x="152.799" y="-108.06" type="line"/>
    </contour>
    <contour>
      <point x="135.579" y="432.689" type="curve"/>
      <point x="135.579" y="8.24805" type="line"/>
      <point x="113.848" y="-3.48535"/>
      <point x="81.4043" y="-15.0312"/>
      <point x="54.3164" y="-20.7891" type="curve"/>
      <point x="54.3164" y="365.452" type="line"/>
      <point x="18.3057" y="405.754" type="line"/>
      <point x="49.4834" y="415.485"/>
      <point x="102.511" y="428.173"/>
    </contour>
  </outline>
</glyph>
<glyph name="n" format="2">
  <advance width="191"/>
  <unicode hex="006E"/>
  <outline>
    <contour>
      <point x="135.582" y="432.688" type="curve"/>
      <point x="135.582" y="-204.019" type="line"/>
      <point x="113.848" y="-215.752"/>
      <point x="81.4082" y="-227.299"/>
      <point x="54.3213" y="-233.056" type="curve"/>
      <point x="54.3213" y="365.451" type="line"/>
      <point x="18.3076" y="405.754" type="line"/>
      <point x="49.4844" y="415.483"/>
      <point x="102.514" y="428.172"/>
    </contour>
  </outline>
</glyph>
<glyph name="p" format="2">
  <advance width="423"/>
  <unicode hex="0070"/>
  <outline>
    <contour>
      <point x="135.584" y="366.661" type="line"/>
      <point x="135.584" y="8.24414" type="line"/>
      <point x="113.85" y="-3.48926"/>
      <point x="81.4102" y="-15.0352"/>
      <point x="54.3232" y="-20.793" type="curve"/>
      <point x="54.3232" y="355.891" type="line"/>
      <point x="12.5957" y="400.651" type="line"/>
      <point x="35.5801" y="413.585"/>
      <point x="86.1309" y="438.504"/>
      <point x="113.325" y="448.458" type="curve"/>
      <point x="141.084" y="402.553" type="line"/>
      <point x="270.248" y="402.553" type="line"/>
      <point x="306.588" y="415.452"/>
      <point x="336.598" y="424.414"/>
      <point x="372.834" y="432.688" type="curve"/>
      <point x="370.771" y="415.483"/>
      <point x="368.706" y="369.188"/>
      <point x="368.706" y="331.711" type="curve" smooth="yes"/>
      <point x="368.706" y="-204.018" type="line"/>
      <point x="346.972" y="-215.751"/>
      <point x="314.531" y="-227.298"/>
      <point x="287.444" y="-233.056" type="curve"/>
      <point x="287.444" y="-233.056"/>
      <point x="287.444" y="366.66"/>
      <point x="287.444" y="366.661" type="curve" smooth="yes"/>
    </contour>
  </outline>
</glyph>
<glyph name="q" format="2">
  <advance width="815"/>
  <unicode hex="0071"/>
  <outline>
    <contour>
      <point x="548.268" y="15.4379" type="line"/>
      <point x="497.757" y="-3.78329"/>
      <point x="448.782" y="-21.2556"/>
      <point x="392.85" y="-21.2556" type="curve" smooth="yes"/>
      <point x="296.683" y="-21.2556"/>
      <point x="237.956" y="35.166"/>
      <point x="237.956" y="136.584" type="curve" smooth="yes"/>
      <point x="237.956" y="366.66" type="line"/>
      <point x="32.6211" y="366.66" type="line" smooth="yes"/>
      <point x="18.8516" y="366.66"/>
      <point x="16.5518" y="370.601"/>
      <point x="25.7969" y="379.229" type="curve" smooth="yes"/>
      <point x="52.2676" y="403.934"/>
      <point x="99.0635" y="443.181"/>
      <point x="131.01" y="468.166" type="curve"/>
      <point x="186.138" y="402.553" type="line"/>
      <point x="677.665" y="402.552" type="line" smooth="yes"/>
      <point x="701.109" y="402.552"/>
      <point x="768.678" y="407.661"/>
      <point x="784.735" y="408.878" type="curve"/>
      <point x="766.461" y="355.955" type="line"/>
      <point x="746.16" y="361.46"/>
      <point x="698.261" y="366.66"/>
      <point x="677.178" y="366.66" type="curve" smooth="yes"/>
      <point x="622.632" y="366.66" type="line"/>
      <point x="622.632" y="55.2939" type="line"/>
      <point x="656.475" y="9.52148" type="line"/>
      <point x="630.875" y="-3.10352"/>
      <point x="592.4" y="-13.958"/>
      <point x="559.098" y="-19.5156" type="curve"/>
    </contour>
    <contour>
      <point x="313.918" y="597.94" type="curve"/>
      <point x="369.046" y="532.327" type="line"/>
      <point x="523.289" y="532.327" type="line" smooth="yes"/>
      <point x="546.732" y="532.327"/>
      <point x="614.306" y="537.437"/>
      <point x="630.364" y="538.653" type="curve"/>
      <point x="612.086" y="485.729" type="line"/>
      <point x="591.784" y="491.234"/>
      <point x="543.886" y="496.435"/>
      <point x="522.803" y="496.435" type="curve" smooth="yes"/>
      <point x="215.529" y="496.435" type="line" smooth="yes"/>
      <point x="201.76" y="496.435"/>
      <point x="199.46" y="500.375"/>
      <point x="208.705" y="509.004" type="curve" smooth="yes"/>
      <point x="235.177" y="533.708"/>
      <point x="281.972" y="572.955"/>
    </contour>
    <contour>
      <point x="541.371" y="62.6761" type="curve"/>
      <point x="541.371" y="366.66" type="line"/>
      <point x="319.218" y="366.66" type="line"/>
      <point x="319.218" y="160.14" type="line" smooth="yes"/>
      <point x="319.218" y="77.666"/>
      <point x="357.222" y="23.9941"/>
      <point x="440.645" y="23.9941" type="curve" smooth="yes"/>
      <point x="473.685" y="23.9941"/>
      <point x="498.836" y="27.269"/>
    </contour>
  </outline>
</glyph>
<glyph name="r" format="2">
  <advance width="501"/>
  <unicode hex="0072"/>
  <outline>
    <contour>
      <point x="113.322" y="448.458" type="curve"/>
      <point x="141.082" y="402.553" type="line"/>
      <point x="355.613" y="402.553" type="line" smooth="yes"/>
      <point x="379.057" y="402.553"/>
      <point x="446.63" y="407.662"/>
      <point x="462.688" y="408.879" type="curve"/>
      <point x="444.409" y="355.955" type="line"/>
      <point x="424.108" y="361.461"/>
      <point x="376.21" y="366.66"/>
      <point x="355.127" y="366.66" type="curve" smooth="yes"/>
      <point x="135.582" y="366.66" type="line"/>
      <point x="135.582" y="35.8926" type="line"/>
      <point x="363.034" y="35.8926" type="line" smooth="yes"/>
      <point x="386.478" y="35.8926"/>
      <point x="454.051" y="41.002"/>
      <point x="470.109" y="42.2178" type="curve"/>
      <point x="451.83" y="-10.7051" type="line"/>
      <point x="431.528" y="-5.2002"/>
      <point x="383.631" y="0"/>
      <point x="362.548" y="0" type="curve" smooth="yes"/>
      <point x="135.582" y="-9.75608e-15" type="line"/>
      <point x="135.582" y="-33.8506" type="line"/>
      <point x="113.848" y="-45.583"/>
      <point x="81.4072" y="-57.1299"/>
      <point x="54.3203" y="-62.8877" type="curve"/>
      <point x="54.3203" y="355.891" type="line"/>
      <point x="12.5928" y="400.651" type="line"/>
      <point x="35.5771" y="413.585"/>
      <point x="86.1279" y="438.504"/>
    </contour>
  </outline>
</glyph>
<glyph name="s" format="2">
  <advance width="190"/>
  <unicode hex="0073"/>
  <outline>
    <contour>
      <point x="135.58" y="432.689" type="curve"/>
      <point x="135.58" y="8.24805" type="line"/>
      <point x="113.848" y="-3.48535"/>
      <point x="81.4043" y="-15.0312"/>
      <point x="54.3174" y="-20.7891" type="curve"/>
      <point x="54.3174" y="365.452" type="line"/>
      <point x="18.3057" y="405.754" type="line"/>
      <point x="49.4834" y="415.485"/>
      <point x="102.511" y="428.173"/>
    </contour>
  </outline>
</glyph>
<glyph name="u" format="2">
  <advance width="190"/>
  <unicode hex="0075"/>
  <outline>
    <contour>
      <point x="135.577" y="432.69" type="curve"/>
      <point x="135.577" y="-204.018" type="line"/>
      <point x="113.846" y="-215.75"/>
      <point x="81.4023" y="-227.297"/>
      <point x="54.3145" y="-233.055" type="curve"/>
      <point x="54.3145" y="365.453" type="line"/>
      <point x="18.3037" y="405.755" type="line"/>
      <point x="49.4814" y="415.485"/>
      <point x="102.509" y="428.174"/>
    </contour>
    <contour>
      <point x="148.172" y="547.458" type="curve" smooth="yes"/>
      <point x="148.172" y="518.062"/>
      <point x="124.336" y="494.231"/>
      <point x="94.9463" y="494.231" type="curve" smooth="yes"/>
      <point x="65.5488" y="494.231"/>
      <point x="41.7197" y="518.062"/>
      <point x="41.7197" y="547.458" type="curve" smooth="yes"/>
      <point x="41.7197" y="576.854"/>
      <point x="65.5488" y="600.685"/>
      <point x="94.9463" y="600.685" type="curve" smooth="yes"/>
      <point x="124.336" y="600.685"/>
      <point x="148.172" y="576.854"/>
    </contour>
  </outline>
</glyph>
<glyph name="v" format="2">
  <advance width="530"/>
  <unicode hex="0076"/>
  <outline>
    <contour>
      <point x="332.26" y="-108.52" type="line"/>
      <point x="331.624" y="-110.002"/>
      <point x="268.478" y="-253.792"/>
      <point x="262.188" y="-253.792" type="curve" smooth="yes"/>
      <point x="255.908" y="-253.792"/>
      <point x="192.757" y="-110.002"/>
      <point x="192.121" y="-108.52" type="curve"/>
      <point x="204.326" y="-108.52" type="line"/>
      <point x="262.188" y="-137.558" type="line"/>
      <point x="320.055" y="-108.52" type="line"/>
    </contour>
    <contour>
      <point x="301.575" y="370.873" type="curve" smooth="yes"/>
      <point x="241.448" y="370.873"/>
      <point x="159.642" y="329.225"/>
      <point x="135.57" y="305.354" type="curve"/>
      <point x="135.57" y="37.9395" type="line"/>
      <point x="266.969" y="42.6387"/>
      <point x="417.393" y="131.45"/>
      <point x="417.393" y="272.39" type="curve" smooth="yes"/>
      <point x="417.393" y="351.904"/>
      <point x="364.35" y="370.873"/>
    </contour>
    <contour>
      <point x="135.57" y="615.81" type="curve"/>
      <point x="135.57" y="358.646" type="line"/>
      <point x="221.335" y="388.108"/>
      <point x="287.273" y="406.297"/>
      <point x="313.258" y="412.764" type="curve"/>
      <point x="322.603" y="413.361"/>
      <point x="331.663" y="413.663"/>
      <point x="340.424" y="413.663" type="curve" smooth="yes"/>
      <point x="440.524" y="413.663"/>
      <point x="501.575" y="374.348"/>
      <point x="501.575" y="288.935" type="curve" smooth="yes"/>
      <point x="501.575" y="157.543"/>
      <point x="387.296" y="77.0381"/>
      <point x="290.93" y="39.0449" type="curve" smooth="yes"/>
      <point x="217.878" y="10.2422"/>
      <point x="117.281" y="-13.0938"/>
      <point x="54.3076" y="-20.79" type="curve"/>
      <point x="54.3076" y="548.572" type="line"/>
      <point x="18.2969" y="588.875" type="line"/>
      <point x="49.4746" y="598.605"/>
      <point x="102.502" y="611.293"/>
    </contour>
  </outline>
</glyph>
<glyph name="y" format="2">
  <advance width="510"/>
  <unicode hex="0079"/>
  <outline>
    <contour>
      <point x="113.323" y="446.394" type="curve"/>
      <point x="141.08" y="400.488" type="line"/>
      <point x="371.185" y="400.488" type="line" smooth="yes"/>
      <point x="394.63" y="400.488"/>
      <point x="462.201" y="405.598"/>
      <point x="478.262" y="406.814" type="curve"/>
      <point x="459.987" y="353.891" type="line"/>
      <point x="439.683" y="359.396"/>
      <point x="391.783" y="364.596"/>
      <point x="370.698" y="364.596" type="curve" smooth="yes"/>
      <point x="337.563" y="364.596" type="line"/>
      <point x="337.563" y="8.24316" type="line"/>
      <point x="315.832" y="-3.48926"/>
      <point x="283.389" y="-15.0361"/>
      <point x="256.302" y="-20.793" type="curve"/>
      <point x="256.302" y="364.596" type="line"/>
      <point x="135.585" y="364.596" type="line"/>
      <point x="135.585" y="-204.018" type="line"/>
      <point x="113.846" y="-215.751"/>
      <point x="81.4092" y="-227.298"/>
      <point x="54.3223" y="-233.056" type="curve"/>
      <point x="54.3223" y="353.826" type="line"/>
      <point x="12.5947" y="398.587" type="line"/>
      <point x="35.5771" y="411.521"/>
      <point x="86.125" y="436.439"/>
    </contour>
  </outline>
</glyph>
<glyph name="braceleft" format="2">
  <advance width="248"/>
  <unicode hex="007B"/>
  <outline>
    <contour>
      <point x="77.3139" y="-57.0134" type="curve" smooth="yes"/>
      <point x="77.3139" y="-24.6585"/>
      <point x="81.1194" y="63.0986"/>
      <point x="82.4013" y="92.661" type="curve" smooth="yes"/>
      <point x="82.661" y="98.6488"/>
      <point x="82.8171" y="102.249"/>
      <point x="82.8171" y="102.518" type="curve" smooth="yes"/>
      <point x="82.8171" y="147.473"/>
      <point x="73.6959" y="168.252"/>
      <point x="31.1406" y="175.777" type="curve"/>
      <point x="31.1406" y="199.135" type="line"/>
      <point x="73.6959" y="206.66"/>
      <point x="82.8171" y="227.439"/>
      <point x="82.8171" y="272.394" type="curve" smooth="yes"/>
      <point x="82.8171" y="284.814"/>
      <point x="81.9267" y="302.021"/>
      <point x="80.8622" y="322.593" type="curve" smooth="yes"/>
      <point x="79.2803" y="353.164"/>
      <point x="77.3139" y="391.165"/>
      <point x="77.3139" y="431.925" type="curve" smooth="yes"/>
      <point x="77.3139" y="559.054"/>
      <point x="104.036" y="588.718"/>
      <point x="221.055" y="588.718" type="curve"/>
      <point x="221.055" y="560.312" type="line"/>
      <point x="171.252" y="551.485"/>
      <point x="161.454" y="520.76"/>
      <point x="161.454" y="453.869" type="curve" smooth="yes"/>
      <point x="161.454" y="434.877"/>
      <point x="162.363" y="409.167"/>
      <point x="163.317" y="382.17" type="curve" smooth="yes"/>
      <point x="164.372" y="352.325"/>
      <point x="165.483" y="320.906"/>
      <point x="165.483" y="295.249" type="curve" smooth="yes"/>
      <point x="165.483" y="235.295"/>
      <point x="160.516" y="206.819"/>
      <point x="124.034" y="187.456" type="curve"/>
      <point x="160.517" y="168.092"/>
      <point x="165.483" y="139.614"/>
      <point x="165.483" y="79.6632" type="curve" smooth="yes"/>
      <point x="165.483" y="72.1297"/>
      <point x="163.396" y="-5.91071"/>
      <point x="162.226" y="-49.651" type="curve" smooth="yes"/>
      <point x="161.77" y="-66.6815"/>
      <point x="161.454" y="-78.5122"/>
      <point x="161.454" y="-78.9569" type="curve" smooth="yes"/>
      <point x="161.454" y="-145.848"/>
      <point x="171.252" y="-176.573"/>
      <point x="221.055" y="-185.399" type="curve"/>
      <point x="221.055" y="-213.806" type="line"/>
      <point x="104.025" y="-213.806"/>
      <point x="77.3139" y="-184.131"/>
    </contour>
  </outline>
</glyph>
<glyph name="quoteleft" format="2">
  <advance width="172"/>
  <unicode hex="2018"/>
  <outline>
    <contour>
      <point x="91" y="438" type="curve" smooth="yes"/>
      <point x="41" y="438"/>
      <point x="16" y="472"/>
      <point x="16" y="526" type="curve" smooth="yes"/>
      <point x="16" y="584"/>
      <point x="57" y="639"/>
      <point x="126" y="674" type="curve"/>
      <point x="147" y="648" type="line"/>
      <point x="94" y="617"/>
      <point x="74" y="584"/>
      <point x="74" y="558" type="curve" smooth="yes"/>
      <point x="74" y="547"/>
      <point x="79" y="544"/>
      <point x="89" y="542" type="curve" smooth="yes"/>
      <point x="128" y="535"/>
      <point x="145" y="515"/>
      <point x="145" y="486" type="curve" smooth="yes"/>
      <point x="145" y="463"/>
      <point x="123" y="438"/>
    </contour>
  </outline>
</glyph>
<glyph name="quotedblright" format="2">
  <advance width="315"/>
  <unicode hex="201D"/>
  <outline>
    <contour>
      <point x="224" y="674" type="curve" smooth="yes"/>
      <point x="274" y="674"/>
      <point x="299" y="640"/>
      <point x="299" y="586" type="curve" smooth="yes"/>
      <point x="299" y="528"/>
      <point x="259" y="473"/>
      <point x="190" y="438" type="curve"/>
      <point x="169" y="464" type="line"/>
      <point x="222" y="495"/>
      <point x="242" y="527"/>
      <point x="242" y="553" type="curve" smooth="yes"/>
      <point x="242" y="564"/>
      <point x="237" y="568"/>
      <point x="227" y="570" type="curve" smooth="yes"/>
      <point x="188" y="577"/>
      <point x="170" y="596"/>
      <point x="170" y="625" type="curve" smooth="yes"/>
      <point x="170" y="648"/>
      <point x="192" y="674"/>
    </contour>
    <contour>
      <point x="82" y="674" type="curve" smooth="yes"/>
      <point x="132" y="674"/>
      <point x="157" y="640"/>
      <point x="157" y="586" type="curve" smooth="yes"/>
      <point x="157" y="528"/>
      <point x="117" y="473"/>
      <point x="48" y="438" type="curve"/>
      <point x="26" y="464" type="line"/>
      <point x="79" y="495"/>
      <point x="99" y="527"/>
      <point x="99" y="553" type="curve" smooth="yes"/>
      <point x="99" y="564"/>
      <point x="95" y="568"/>
      <point x="85" y="570" type="curve" smooth="yes"/>
      <point x="46" y="577"/>
      <point x="28" y="596"/>
      <point x="28" y="625" type="curve" smooth="yes"/>
      <point x="28" y="648"/>
      <point x="50" y="674"/>
    </contour>
  </outline>
</glyph>
<glyph name="ellipsis" format="2">
  <advance width="626"/>
  <unicode hex="2026"/>
  <outline>
    <contour>
      <point x="595.771" y="40.5742" type="curve" smooth="yes"/>
      <point x="595.771" y="7.59668"/>
      <point x="568.997" y="-19.1777"/>
      <point x="536.02" y="-19.1787" type="curve" smooth="yes"/>
      <point x="503.045" y="-19.1738"/>
      <point x="476.275" y="7.59863"/>
      <point x="476.275" y="40.5742" type="curve" smooth="yes"/>
      <point x="476.275" y="73.5498"/>
      <point x="503.045" y="100.322"/>
      <point x="536.02" y="100.327" type="curve" smooth="yes"/>
      <point x="568.997" y="100.326"/>
      <point x="595.771" y="73.5527"/>
    </contour>
    <contour>
      <point x="372.553" y="40.5742" type="curve" smooth="yes"/>
      <point x="372.553" y="7.59863"/>
      <point x="345.783" y="-19.1738"/>
      <point x="312.809" y="-19.1787" type="curve" smooth="yes"/>
      <point x="279.831" y="-19.1777"/>
      <point x="253.057" y="7.59668"/>
      <point x="253.057" y="40.5742" type="curve" smooth="yes"/>
      <point x="253.057" y="73.5527"/>
      <point x="279.831" y="100.326"/>
      <point x="312.809" y="100.327" type="curve" smooth="yes"/>
      <point x="345.783" y="100.322"/>
      <point x="372.553" y="73.5498"/>
    </contour>
    <contour>
      <point x="149.342" y="40.5742" type="curve" smooth="yes"/>
      <point x="149.342" y="7.59668"/>
      <point x="122.568" y="-19.1777"/>
      <point x="89.5908" y="-19.1787" type="curve" smooth="yes"/>
      <point x="56.6123" y="-19.1777"/>
      <point x="29.8389" y="7.59668"/>
      <point x="29.8389" y="40.5742" type="curve" smooth="yes"/>
      <point x="29.8389" y="73.5527"/>
      <point x="56.6123" y="100.326"/>
      <point x="89.5908" y="100.327" type="curve" smooth="yes"/>
      <point x="122.568" y="100.326"/>
      <point x="149.342" y="73.5527"/>
    </contour>
  </outline>
</glyph>
<glyph name="a.fina" format="2">
  <advance width="530"/>
  <unicode hex="E002"/>
  <outline>
    <contour>
      <point x="313.271" y="412.474" type="curve"/>
      <point x="322.615" y="413.071"/>
      <point x="331.675" y="413.373"/>
      <point x="340.436" y="413.373" type="curve" smooth="yes"/>
      <point x="440.532" y="413.373"/>
      <point x="501.586" y="374.059"/>
      <point x="501.586" y="288.646" type="curve" smooth="yes"/>
      <point x="501.586" y="157.253"/>
      <point x="387.939" y="75.1113"/>
      <point x="290.944" y="38.7549" type="curve" smooth="yes"/>
      <point x="202.476" y="5.59448"/>
      <point x="167.673" y="-5.46273"/>
      <point x="135.584" y="-9.96353" type="curve"/>
      <point x="135.584" y="-204.012" type="line"/>
      <point x="113.851" y="-215.745"/>
      <point x="81.4092" y="-227.292"/>
      <point x="54.3223" y="-233.049" type="curve"/>
      <point x="54.3223" y="366.66" type="line"/>
      <point x="-7.78516" y="366.661" type="line"/>
      <point x="-7.78516" y="402.553" type="line"/>
      <point x="37.124" y="402.553" type="line"/>
      <point x="73.4658" y="415.452"/>
      <point x="103.476" y="424.414"/>
      <point x="139.714" y="432.688" type="curve"/>
      <point x="138.123" y="419.437"/>
      <point x="136.533" y="388.926"/>
      <point x="135.886" y="358.48" type="curve"/>
      <point x="223.424" y="388.682"/>
      <point x="286.918" y="405.915"/>
    </contour>
    <contour>
      <point x="135.584" y="37.8651" type="line"/>
      <point x="137.89" y="37.7941"/>
      <point x="140.208" y="37.7587"/>
      <point x="142.538" y="37.7587" type="curve" smooth="yes"/>
      <point x="264.076" y="37.7587"/>
      <point x="417.4" y="133.815"/>
      <point x="417.4" y="272.101" type="curve" smooth="yes"/>
      <point x="417.4" y="351.615"/>
      <point x="364.362" y="370.583"/>
      <point x="301.589" y="370.583" type="curve" smooth="yes"/>
      <point x="240.381" y="370.583"/>
      <point x="159.649" y="328.938"/>
      <point x="135.584" y="305.066" type="curve"/>
    </contour>
  </outline>
</glyph>
<glyph name="c.fina" format="2">
  <advance width="424"/>
  <unicode hex="E008"/>
  <outline>
    <contour>
      <point x="372.833" y="432.407" type="curve"/>
      <point x="370.769" y="415.203"/>
      <point x="368.705" y="368.907"/>
      <point x="368.705" y="331.431" type="curve" smooth="yes"/>
      <point x="368.705" y="7.95898" type="line"/>
      <point x="346.971" y="-3.77441"/>
      <point x="314.53" y="-15.3203"/>
      <point x="287.443" y="-21.0781" type="curve"/>
      <point x="287.443" y="366.372" type="line"/>
      <point x="135.583" y="366.521" type="line"/>
      <point x="135.583" y="-204.018" type="line"/>
      <point x="113.849" y="-215.751"/>
      <point x="81.4082" y="-227.296"/>
      <point x="54.3213" y="-233.054" type="curve"/>
      <point x="54.3213" y="366.6" type="line"/>
      <point x="-7.78516" y="366.661" type="line"/>
      <point x="-7.78516" y="402.553" type="line"/>
      <point x="270.244" y="402.271" type="line"/>
      <point x="306.586" y="415.17"/>
      <point x="336.596" y="424.133"/>
    </contour>
  </outline>
</glyph>
<glyph name="d.medi" format="2">
  <advance width="190"/>
  <unicode hex="E00A"/>
  <outline>
    <contour>
      <point x="54.3223" y="402.552" type="line"/>
      <point x="54.3223" y="548.571" type="line"/>
      <point x="18.3086" y="588.874" type="line"/>
      <point x="49.4854" y="598.604"/>
      <point x="102.515" y="611.292"/>
      <point x="135.583" y="615.809" type="curve"/>
      <point x="135.583" y="402.552" type="line"/>
      <point x="197.691" y="402.552" type="line"/>
      <point x="197.691" y="366.66" type="line"/>
      <point x="135.583" y="366.66" type="line"/>
      <point x="135.583" y="-204.018" type="line"/>
      <point x="113.85" y="-215.751"/>
      <point x="81.4092" y="-227.298"/>
      <point x="54.3223" y="-233.055" type="curve"/>
      <point x="54.3223" y="366.66" type="line"/>
      <point x="-7.78613" y="366.66" type="line"/>
      <point x="-7.78613" y="402.552" type="line"/>
    </contour>
  </outline>
</glyph>
<glyph name="e.medi" format="2">
  <advance width="445"/>
  <unicode hex="E00D"/>
  <outline>
    <contour>
      <point x="-7.78516" y="402.553" type="line"/>
      <point x="452.63" y="402.553" type="line"/>
      <point x="452.63" y="366.661" type="line"/>
      <point x="390.524" y="366.661" type="line"/>
      <point x="390.524" y="151.11" type="line" smooth="yes"/>
      <point x="390.524" y="68.2949"/>
      <point x="354.637" y="37.4805"/>
      <point x="316.307" y="19.1123" type="curve" smooth="yes"/>
      <point x="293.862" y="8.35767"/>
      <point x="237.026" y="-16.3235"/>
      <point x="188.22" y="-16.3235" type="curve" smooth="yes"/>
      <point x="123.219" y="-16.3235"/>
      <point x="54.3213" y="17.171"/>
      <point x="54.3213" y="119.809" type="curve" smooth="yes"/>
      <point x="54.3213" y="366.66" type="line"/>
      <point x="-7.78516" y="366.66" type="line"/>
    </contour>
    <contour>
      <point x="135.582" y="366.66" type="line"/>
      <point x="135.582" y="143.364" type="line" smooth="yes"/>
      <point x="135.582" y="60.8906"/>
      <point x="173.865" y="29.4912"/>
      <point x="227.026" y="29.4912" type="curve" smooth="yes"/>
      <point x="272.979" y="29.4912"/>
      <point x="309.263" y="58.166"/>
      <point x="309.263" y="127.555" type="curve" smooth="yes"/>
      <point x="309.263" y="366.661" type="line"/>
    </contour>
  </outline>
</glyph>
<glyph name="e.fina" format="2">
  <advance width="344"/>
  <unicode hex="E00E"/>
  <outline>
    <contour>
      <point x="319.211" y="198.829" type="curve"/>
      <point x="300.933" y="145.905" type="line"/>
      <point x="280.63" y="151.411"/>
      <point x="232.732" y="156.611"/>
      <point x="211.649" y="156.611" type="curve" smooth="yes"/>
      <point x="135.583" y="156.611" type="line"/>
      <point x="135.583" y="-204.018" type="line"/>
      <point x="113.85" y="-215.751"/>
      <point x="81.4082" y="-227.297"/>
      <point x="54.3213" y="-233.055" type="curve"/>
      <point x="54.3213" y="366.66" type="line"/>
      <point x="-7.78516" y="366.66" type="line"/>
      <point x="-7.78516" y="402.553" type="line"/>
      <point x="37.123" y="402.553" type="line"/>
      <point x="73.4648" y="415.451"/>
      <point x="103.475" y="424.414"/>
      <point x="139.712" y="432.688" type="curve"/>
      <point x="137.647" y="415.484"/>
      <point x="135.583" y="369.188"/>
      <point x="135.583" y="331.712" type="curve" smooth="yes"/>
      <point x="135.583" y="192.503" type="line"/>
      <point x="212.136" y="192.503" type="line" smooth="yes"/>
      <point x="235.58" y="192.503"/>
      <point x="303.153" y="197.612"/>
    </contour>
  </outline>
</glyph>
<glyph name="h.init" format="2">
  <advance width="590"/>
  <unicode hex="E015"/>
  <outline>
    <contour>
      <point x="92.0869" y="468.166" type="curve"/>
      <point x="147.211" y="402.553" type="line"/>
      <point x="597.343" y="402.552" type="line"/>
      <point x="597.343" y="366.66" type="line"/>
      <point x="535.236" y="366.66" type="line"/>
      <point x="535.236" y="151.107" type="line" smooth="yes"/>
      <point x="535.236" y="68.293"/>
      <point x="499.35" y="37.4805"/>
      <point x="461.02" y="19.1133" type="curve" smooth="yes"/>
      <point x="438.572" y="8.35549"/>
      <point x="381.742" y="-16.3253"/>
      <point x="332.935" y="-16.3253" type="curve" smooth="yes"/>
      <point x="267.934" y="-16.3253"/>
      <point x="199.034" y="17.1702"/>
      <point x="199.034" y="119.809" type="curve" smooth="yes"/>
      <point x="199.034" y="366.66" type="line"/>
      <point x="-6.30273" y="366.66" type="line" smooth="yes"/>
      <point x="-20.0742" y="366.66"/>
      <point x="-22.3691" y="370.601"/>
      <point x="-13.1289" y="379.229" type="curve" smooth="yes"/>
      <point x="13.3477" y="403.934"/>
      <point x="60.1367" y="443.181"/>
    </contour>
    <contour>
      <point x="453.976" y="366.66" type="line"/>
      <point x="280.295" y="366.66" type="line"/>
      <point x="280.295" y="143.364" type="line" smooth="yes"/>
      <point x="280.295" y="60.8906"/>
      <point x="318.579" y="29.4912"/>
      <point x="371.74" y="29.4912" type="curve" smooth="yes"/>
      <point x="417.693" y="29.4912"/>
      <point x="453.976" y="58.1641"/>
      <point x="453.976" y="127.553" type="curve" smooth="yes"/>
    </contour>
  </outline>
</glyph>
<glyph name="i.init" format="2">
  <advance width="445"/>
  <unicode hex="E018"/>
  <outline>
    <contour>
      <point x="390.527" y="366.66" type="line"/>
      <point x="390.527" y="151.108" type="line" smooth="yes"/>
      <point x="390.527" y="68.293"/>
      <point x="354.64" y="37.4805"/>
      <point x="316.311" y="19.1133" type="curve" smooth="yes"/>
      <point x="293.836" y="8.34413"/>
      <point x="237.021" y="-16.3253"/>
      <point x="188.225" y="-16.3253" type="curve" smooth="yes"/>
      <point x="123.224" y="-16.3253"/>
      <point x="54.3242" y="17.1702"/>
      <point x="54.3242" y="119.809" type="curve" smooth="yes"/>
      <point x="54.3242" y="353.826" type="line"/>
      <point x="12.5957" y="398.587" type="line"/>
      <point x="35.5811" y="411.521"/>
      <point x="86.1309" y="436.439"/>
      <point x="113.326" y="446.394" type="curve"/>
      <point x="139.837" y="402.552" type="line"/>
      <point x="452.634" y="402.552" type="line"/>
      <point x="452.634" y="366.66" type="line"/>
    </contour>
    <contour>
      <point x="309.266" y="366.66" type="line"/>
      <point x="135.585" y="366.659" type="line"/>
      <point x="135.585" y="143.364" type="line" smooth="yes"/>
      <point x="135.585" y="60.8906"/>
      <point x="173.87" y="29.4912"/>
      <point x="227.031" y="29.4912" type="curve" smooth="yes"/>
      <point x="272.984" y="29.4912"/>
      <point x="309.266" y="58.1641"/>
      <point x="309.266" y="127.553" type="curve" smooth="yes"/>
    </contour>
  </outline>
</glyph>
<glyph name="i.medi" format="2">
  <advance width="397"/>
  <unicode hex="E019"/>
  <outline>
    <contour>
      <point x="144.741" y="643.562" type="curve"/>
      <point x="199.869" y="577.948" type="line"/>
      <point x="261.168" y="577.948" type="line" smooth="yes"/>
      <point x="284.611" y="577.948"/>
      <point x="352.189" y="583.058"/>
      <point x="368.246" y="584.274" type="curve"/>
      <point x="349.968" y="531.351" type="line"/>
      <point x="329.666" y="536.855"/>
      <point x="281.768" y="542.056"/>
      <point x="260.685" y="542.056" type="curve" smooth="yes"/>
      <point x="46.3525" y="542.056" type="line" smooth="yes"/>
      <point x="32.583" y="542.056"/>
      <point x="30.2832" y="545.996"/>
      <point x="39.5283" y="554.625" type="curve" smooth="yes"/>
      <point x="66" y="579.329"/>
      <point x="112.795" y="618.576"/>
    </contour>
    <contour>
      <point x="154.394" y="402.553" type="line"/>
      <point x="159.299" y="407.348"/>
      <point x="196.369" y="443.432"/>
      <point x="201.106" y="443.432" type="curve" smooth="yes"/>
      <point x="205.815" y="443.432"/>
      <point x="241.767" y="408.471"/>
      <point x="247.823" y="402.553" type="curve"/>
      <point x="405.241" y="402.553" type="line"/>
      <point x="405.241" y="366.66" type="line"/>
      <point x="-7.78809" y="366.66" type="line"/>
      <point x="-7.78809" y="402.553" type="line"/>
    </contour>
  </outline>
</glyph>
<glyph name="j.fina" format="2">
  <advance width="493"/>
  <unicode hex="E01D"/>
  <outline>
    <contour>
      <point x="364.631" y="15.4389" type="line"/>
      <point x="314.117" y="-3.78473"/>
      <point x="265.138" y="-21.2547"/>
      <point x="209.212" y="-21.2547" type="curve" smooth="yes"/>
      <point x="113.045" y="-21.2547"/>
      <point x="54.3184" y="35.1669"/>
      <point x="54.3184" y="136.585" type="curve" smooth="yes"/>
      <point x="54.3184" y="366.662" type="line"/>
      <point x="-7.78613" y="366.661" type="line"/>
      <point x="-7.78613" y="402.553" type="line"/>
      <point x="340.532" y="402.561" type="line"/>
      <point x="376.874" y="415.459"/>
      <point x="406.884" y="424.422"/>
      <point x="443.122" y="432.696" type="curve"/>
      <point x="441.058" y="415.492"/>
      <point x="438.992" y="369.196"/>
      <point x="438.992" y="331.72" type="curve" smooth="yes"/>
      <point x="438.992" y="55.2939" type="line"/>
      <point x="472.836" y="9.52148" type="line"/>
      <point x="447.235" y="-3.10352"/>
      <point x="408.762" y="-13.958"/>
      <point x="375.459" y="-19.5156" type="curve"/>
    </contour>
    <contour>
      <point x="357.735" y="62.6777" type="curve"/>
      <point x="357.731" y="366.668" type="line"/>
      <point x="135.58" y="366.664" type="line"/>
      <point x="135.58" y="160.141" type="line" smooth="yes"/>
      <point x="135.58" y="77.667"/>
      <point x="173.584" y="23.9951"/>
      <point x="257.007" y="23.9951" type="curve" smooth="yes"/>
      <point x="290.048" y="23.9951"/>
      <point x="315.199" y="27.2695"/>
    </contour>
  </outline>
</glyph>
<glyph name="k.init" format="2">
  <advance width="566"/>
  <unicode hex="E01E"/>
  <outline>
    <contour>
      <point x="90.6455" y="104.126" type="line"/>
      <point x="105.564" y="103.966"/>
      <point x="105.564" y="103.966"/>
      <point x="112.517" y="103.966" type="curve" smooth="yes"/>
      <point x="192.769" y="103.966"/>
      <point x="247.977" y="166.138"/>
      <point x="247.977" y="241.98" type="curve" smooth="yes"/>
      <point x="247.977" y="327.865"/>
      <point x="204.269" y="376.422"/>
      <point x="106.954" y="376.422" type="curve" smooth="yes"/>
      <point x="106.415" y="376.422"/>
      <point x="105.873" y="376.421"/>
      <point x="105.33" y="376.418" type="curve"/>
      <point x="105.33" y="393.818" type="line"/>
      <point x="166.552" y="409.436" type="line" smooth="yes"/>
      <point x="167.856" y="409.45"/>
      <point x="169.153" y="409.458"/>
      <point x="170.442" y="409.458" type="curve" smooth="yes"/>
      <point x="276.115" y="409.458"/>
      <point x="330.033" y="359.785"/>
      <point x="330.033" y="259.678" type="curve" smooth="yes"/>
      <point x="330.033" y="176.412"/>
      <point x="277.871" y="114.468"/>
      <point x="208.547" y="93.2891" type="curve" smooth="yes"/>
      <point x="207.607" y="93.002"/>
      <point x="137.921" y="72.7943"/>
      <point x="113.253" y="69.255" type="curve"/>
      <point x="142.917" y="41.9844"/>
      <point x="193.27" y="26.2139"/>
      <point x="251.369" y="26.2139" type="curve" smooth="yes"/>
      <point x="328.839" y="26.2139"/>
      <point x="400.858" y="69.9811"/>
      <point x="430.382" y="138.54" type="curve"/>
      <point x="430.382" y="355.891" type="line"/>
      <point x="388.654" y="400.651" type="line"/>
      <point x="411.639" y="413.585"/>
      <point x="462.188" y="438.504"/>
      <point x="489.384" y="448.458" type="curve"/>
      <point x="517.142" y="402.553" type="line"/>
      <point x="573.752" y="402.553" type="line"/>
      <point x="573.752" y="366.661" type="line"/>
      <point x="511.643" y="366.661" type="line"/>
      <point x="511.643" y="7.95898" type="line"/>
      <point x="489.908" y="-3.77441"/>
      <point x="457.468" y="-15.3213"/>
      <point x="430.382" y="-21.0791" type="curve"/>
      <point x="430.382" y="52.9886" type="line"/>
      <point x="379.144" y="14.49"/>
      <point x="247.218" y="-18.8614"/>
      <point x="245.283" y="-19.3164" type="curve" smooth="yes"/>
      <point x="238.308" y="-19.9465"/>
      <point x="231.1" y="-20.254"/>
      <point x="223.73" y="-20.254" type="curve" smooth="yes"/>
      <point x="140.449" y="-20.254"/>
      <point x="36.4644" y="19.0114"/>
      <point x="14.3232" y="75.8047" type="curve"/>
      <point x="14.3232" y="85.0449" type="line"/>
    </contour>
    <contour>
      <point x="304.35" y="-218.183" type="curve"/>
      <point x="249.221" y="-152.569" type="line"/>
      <point x="187.923" y="-152.569" type="line" smooth="yes"/>
      <point x="164.479" y="-152.569"/>
      <point x="96.9053" y="-157.678"/>
      <point x="80.8477" y="-158.895" type="curve"/>
      <point x="99.126" y="-105.972" type="line"/>
      <point x="119.428" y="-111.478"/>
      <point x="167.326" y="-116.677"/>
      <point x="188.409" y="-116.677" type="curve" smooth="yes"/>
      <point x="402.737" y="-116.677" type="line" smooth="yes"/>
      <point x="416.507" y="-116.677"/>
      <point x="418.807" y="-120.617"/>
      <point x="409.562" y="-129.246" type="curve" smooth="yes"/>
      <point x="383.091" y="-153.95"/>
      <point x="336.295" y="-193.197"/>
    </contour>
  </outline>
</glyph>
<glyph name="m.fina" format="2">
  <advance width="472"/>
  <unicode hex="E026"/>
  <outline>
    <contour>
      <point x="198.716" y="77.9639" type="line"/>
      <point x="198.857" y="77.9576"/>
      <point x="200.537" y="77.859"/>
      <point x="203.391" y="77.6914" type="curve" smooth="yes"/>
      <point x="223.073" y="76.5355"/>
      <point x="298.58" y="72.1016"/>
      <point x="309.986" y="72.1016" type="curve" smooth="yes"/>
      <point x="329.429" y="72.1016"/>
      <point x="336.401" y="77.7852"/>
      <point x="336.401" y="94.0869" type="curve" smooth="yes"/>
      <point x="336.401" y="366.661" type="line"/>
      <point x="-7.78613" y="366.661" type="line"/>
      <point x="-7.78613" y="402.553" type="line"/>
      <point x="319.202" y="402.553" type="line"/>
      <point x="355.544" y="415.452"/>
      <point x="385.554" y="424.415"/>
      <point x="421.792" y="432.689" type="curve"/>
      <point x="419.728" y="415.484"/>
      <point x="417.663" y="369.188"/>
      <point x="417.663" y="331.712" type="curve" smooth="yes"/>
      <point x="417.663" y="78.6182" type="line" smooth="yes"/>
      <point x="417.663" y="19.5869"/>
      <point x="403.769" y="-3.4502"/>
      <point x="305.067" y="-14.041" type="curve"/>
      <point x="290.2" y="39.8447"/>
      <point x="269.813" y="49.8838"/>
      <point x="198.716" y="58.499" type="curve"/>
    </contour>
    <contour>
      <point x="135.581" y="304.374" type="curve"/>
      <point x="135.581" y="-204.018" type="line"/>
      <point x="113.848" y="-215.751"/>
      <point x="81.4072" y="-227.297"/>
      <point x="54.3203" y="-233.055" type="curve"/>
      <point x="54.3203" y="237.137" type="line"/>
      <point x="18.3066" y="277.438" type="line"/>
      <point x="49.4834" y="287.169"/>
      <point x="102.513" y="299.856"/>
    </contour>
    <contour>
      <point x="271.764" y="547.458" type="curve" smooth="yes"/>
      <point x="271.764" y="518.062"/>
      <point x="247.933" y="494.231"/>
      <point x="218.537" y="494.231" type="curve" smooth="yes"/>
      <point x="189.142" y="494.231"/>
      <point x="165.31" y="518.062"/>
      <point x="165.31" y="547.458" type="curve" smooth="yes"/>
      <point x="165.31" y="576.854"/>
      <point x="189.142" y="600.685"/>
      <point x="218.537" y="600.685" type="curve" smooth="yes"/>
      <point x="247.933" y="600.685"/>
      <point x="271.764" y="576.854"/>
    </contour>
  </outline>
</glyph>
<glyph name="o.init" format="2">
  <advance width="493"/>
  <unicode hex="E02A"/>
  <outline>
    <contour>
      <point x="299.321" y="571.786" type="curve" smooth="yes"/>
      <point x="299.321" y="542.39"/>
      <point x="275.49" y="518.56"/>
      <point x="246.095" y="518.56" type="curve" smooth="yes"/>
      <point x="216.698" y="518.56"/>
      <point x="192.867" y="542.39"/>
      <point x="192.867" y="571.786" type="curve" smooth="yes"/>
      <point x="192.867" y="601.183"/>
      <point x="216.698" y="625.013"/>
      <point x="246.095" y="625.013" type="curve" smooth="yes"/>
      <point x="275.49" y="625.013"/>
      <point x="299.321" y="601.183"/>
    </contour>
    <contour>
      <point x="357.738" y="366.66" type="line"/>
      <point x="135.584" y="366.66" type="line"/>
      <point x="135.584" y="160.141" type="line" smooth="yes"/>
      <point x="135.584" y="77.667"/>
      <point x="173.588" y="23.9941"/>
      <point x="257.011" y="23.9941" type="curve" smooth="yes"/>
      <point x="290.052" y="23.9941"/>
      <point x="315.203" y="27.2695"/>
      <point x="357.738" y="62.677" type="curve"/>
    </contour>
    <contour>
      <point x="139.834" y="402.553" type="line"/>
      <point x="501.104" y="402.552" type="line"/>
      <point x="501.104" y="366.66" type="line"/>
      <point x="438.999" y="366.66" type="line"/>
      <point x="438.999" y="55.293" type="line"/>
      <point x="472.842" y="9.52051" type="line"/>
      <point x="447.241" y="-3.10449"/>
      <point x="408.768" y="-13.959"/>
      <point x="375.465" y="-19.5166" type="curve"/>
      <point x="364.635" y="15.4392" type="line"/>
      <point x="314.122" y="-3.78497"/>
      <point x="265.147" y="-21.2555"/>
      <point x="209.217" y="-21.2555" type="curve" smooth="yes"/>
      <point x="113.049" y="-21.2555"/>
      <point x="54.3223" y="35.1667"/>
      <point x="54.3223" y="136.585" type="curve" smooth="yes"/>
      <point x="54.3223" y="353.825" type="line"/>
      <point x="12.5957" y="398.587" type="line"/>
      <point x="35.5801" y="411.521"/>
      <point x="86.1299" y="436.438"/>
      <point x="113.325" y="446.393" type="curve"/>
    </contour>
  </outline>
</glyph>
<glyph name="o.medi" format="2">
  <advance width="493"/>
  <unicode hex="E02B"/>
  <outline>
    <contour>
      <point x="135.58" y="366.661" type="line"/>
      <point x="135.58" y="160.14" type="line" smooth="yes"/>
      <point x="135.58" y="77.667"/>
      <point x="173.585" y="23.9941"/>
      <point x="257.007" y="23.9941" type="curve" smooth="yes"/>
      <point x="290.048" y="23.9941"/>
      <point x="315.198" y="27.2689"/>
      <point x="357.732" y="62.6743" type="curve"/>
      <point x="357.73" y="366.662" type="line"/>
    </contour>
    <contour>
      <point x="364.629" y="15.4378" type="line"/>
      <point x="314.114" y="-3.78641"/>
      <point x="265.135" y="-21.255"/>
      <point x="209.212" y="-21.255" type="curve" smooth="yes"/>
      <point x="113.046" y="-21.255"/>
      <point x="54.3193" y="35.1671"/>
      <point x="54.3193" y="136.585" type="curve" smooth="yes"/>
      <point x="54.3193" y="366.661" type="line"/>
      <point x="-7.78516" y="366.661" type="line"/>
      <point x="-7.78516" y="402.553" type="line"/>
      <point x="357.73" y="402.553" type="line"/>
      <point x="357.729" y="548.571" type="line"/>
      <point x="321.719" y="588.874" type="line"/>
      <point x="352.896" y="598.604"/>
      <point x="405.922" y="611.292"/>
      <point x="438.99" y="615.809" type="curve"/>
      <point x="438.992" y="402.553" type="line"/>
      <point x="501.101" y="402.553" type="line"/>
      <point x="501.101" y="366.662" type="line"/>
      <point x="438.992" y="366.662" type="line"/>
      <point x="438.994" y="55.2939" type="line"/>
      <point x="472.836" y="9.52148" type="line"/>
      <point x="447.236" y="-3.10352"/>
      <point x="408.762" y="-13.959"/>
      <point x="375.459" y="-19.5166" type="curve"/>
    </contour>
  </outline>
</glyph>
<glyph name="o.fina" format="2">
  <advance width="493"/>
  <unicode hex="E02C"/>
  <outline>
    <contour>
      <point x="299.315" y="571.787" type="curve" smooth="yes"/>
      <point x="299.315" y="542.391"/>
      <point x="275.484" y="518.561"/>
      <point x="246.089" y="518.561" type="curve" smooth="yes"/>
      <point x="216.693" y="518.561"/>
      <point x="192.862" y="542.391"/>
      <point x="192.862" y="571.787" type="curve" smooth="yes"/>
      <point x="192.862" y="601.184"/>
      <point x="216.693" y="625.014"/>
      <point x="246.089" y="625.014" type="curve" smooth="yes"/>
      <point x="275.484" y="625.014"/>
      <point x="299.315" y="601.184"/>
    </contour>
    <contour>
      <point x="364.632" y="15.4389" type="line"/>
      <point x="314.12" y="-3.78229"/>
      <point x="265.146" y="-21.2547"/>
      <point x="209.213" y="-21.2547" type="curve" smooth="yes"/>
      <point x="113.046" y="-21.2547"/>
      <point x="54.3193" y="35.1671"/>
      <point x="54.3193" y="136.586" type="curve" smooth="yes"/>
      <point x="54.3193" y="366.662" type="line"/>
      <point x="-7.78516" y="366.661" type="line"/>
      <point x="-7.78516" y="402.554" type="line"/>
      <point x="340.533" y="402.561" type="line"/>
      <point x="376.875" y="415.46"/>
      <point x="406.885" y="424.422"/>
      <point x="443.122" y="432.697" type="curve"/>
      <point x="441.059" y="415.492"/>
      <point x="438.993" y="369.196"/>
      <point x="438.993" y="331.72" type="curve" smooth="yes"/>
      <point x="438.993" y="55.2939" type="line"/>
      <point x="472.836" y="9.52148" type="line"/>
      <point x="447.236" y="-3.10352"/>
      <point x="408.762" y="-13.958"/>
      <point x="375.46" y="-19.5156" type="curve"/>
    </contour>
    <contour>
      <point x="357.735" y="62.6777" type="curve"/>
      <point x="357.732" y="366.669" type="line"/>
      <point x="135.581" y="366.664" type="line"/>
      <point x="135.581" y="160.141" type="line" smooth="yes"/>
      <point x="135.581" y="77.668"/>
      <point x="173.585" y="23.9951"/>
      <point x="257.007" y="23.9951" type="curve" smooth="yes"/>
      <point x="290.049" y="23.9951"/>
      <point x="315.199" y="27.27"/>
    </contour>
  </outline>
</glyph>
<glyph name="s.init" format="2">
  <advance width="566"/>
  <unicode hex="E036"/>
  <outline>
    <contour>
      <point x="90.6455" y="104.125" type="line"/>
      <point x="105.564" y="103.965"/>
      <point x="105.564" y="103.965"/>
      <point x="112.517" y="103.965" type="curve" smooth="yes"/>
      <point x="192.769" y="103.965"/>
      <point x="247.977" y="166.137"/>
      <point x="247.977" y="241.979" type="curve" smooth="yes"/>
      <point x="247.977" y="327.864"/>
      <point x="204.269" y="376.421"/>
      <point x="106.955" y="376.421" type="curve" smooth="yes"/>
      <point x="106.416" y="376.421"/>
      <point x="105.874" y="376.42"/>
      <point x="105.331" y="376.417" type="curve"/>
      <point x="105.331" y="393.817" type="line"/>
      <point x="166.552" y="409.435" type="line" smooth="yes"/>
      <point x="167.856" y="409.449"/>
      <point x="169.153" y="409.457"/>
      <point x="170.442" y="409.457" type="curve" smooth="yes"/>
      <point x="276.115" y="409.457"/>
      <point x="330.033" y="359.784"/>
      <point x="330.033" y="259.677" type="curve" smooth="yes"/>
      <point x="330.033" y="176.411"/>
      <point x="277.871" y="114.467"/>
      <point x="208.547" y="93.2881" type="curve" smooth="yes"/>
      <point x="207.607" y="93.001"/>
      <point x="137.923" y="72.7935"/>
      <point x="113.253" y="69.2541" type="curve"/>
      <point x="142.917" y="41.9834"/>
      <point x="193.27" y="26.2129"/>
      <point x="251.369" y="26.2129" type="curve" smooth="yes"/>
      <point x="328.839" y="26.2129"/>
      <point x="400.858" y="69.9801"/>
      <point x="430.382" y="138.539" type="curve"/>
      <point x="430.382" y="355.89" type="line"/>
      <point x="388.654" y="400.65" type="line"/>
      <point x="411.639" y="413.584"/>
      <point x="462.189" y="438.503"/>
      <point x="489.384" y="448.457" type="curve"/>
      <point x="517.142" y="402.552" type="line"/>
      <point x="573.752" y="402.552" type="line"/>
      <point x="573.752" y="366.659" type="line"/>
      <point x="511.643" y="366.659" type="line"/>
      <point x="511.643" y="8.24316" type="line"/>
      <point x="489.908" y="-3.49023"/>
      <point x="457.468" y="-15.0361"/>
      <point x="430.382" y="-20.7939" type="curve"/>
      <point x="430.382" y="52.9876" type="line"/>
      <point x="379.144" y="14.4893"/>
      <point x="247.219" y="-18.8624"/>
      <point x="245.284" y="-19.3174" type="curve" smooth="yes"/>
      <point x="238.309" y="-19.9475"/>
      <point x="231.101" y="-20.255"/>
      <point x="223.731" y="-20.255" type="curve" smooth="yes"/>
      <point x="140.449" y="-20.255"/>
      <point x="36.4644" y="19.0104"/>
      <point x="14.3232" y="75.8037" type="curve"/>
      <point x="14.3232" y="85.0439" type="line"/>
    </contour>
  </outline>
</glyph>
<glyph name="s.medi" format="2">
  <advance width="339"/>
  <unicode hex="E037"/>
  <outline>
    <contour>
      <point x="-7.78711" y="402.552" type="line"/>
      <point x="346.848" y="402.552" type="line"/>
      <point x="346.848" y="366.66" type="line"/>
      <point x="219.849" y="366.66" type="line"/>
      <point x="210.686" y="351.191"/>
      <point x="196.861" y="325.414"/>
      <point x="178.339" y="284.322" type="curve"/>
      <point x="154.981" y="284.322" type="line"/>
      <point x="158.193" y="302.774"/>
      <point x="159.745" y="319.625"/>
      <point x="159.745" y="331.392" type="curve" smooth="yes"/>
      <point x="159.745" y="359.396"/>
      <point x="125.709" y="366.659"/>
      <point x="74.2227" y="366.659" type="curve" smooth="yes"/>
      <point x="-7.78711" y="366.66" type="line"/>
    </contour>
    <contour>
      <point x="171.377" y="224.817" type="curve" smooth="yes"/>
      <point x="143.056" y="224.817"/>
      <point x="115.317" y="199.595"/>
      <point x="115.317" y="157.809" type="curve" smooth="yes"/>
      <point x="115.317" y="116.165"/>
      <point x="142.982" y="90.8564"/>
      <point x="171.373" y="90.8564" type="curve" smooth="yes"/>
      <point x="199.786" y="90.8569"/>
      <point x="227.441" y="115.364"/>
      <point x="227.441" y="157.836" type="curve" smooth="yes"/>
      <point x="227.441" y="200.318"/>
      <point x="199.776" y="224.817"/>
    </contour>
    <contour>
      <point x="171.383" y="250.222" type="curve" smooth="yes"/>
      <point x="225.738" y="250.222"/>
      <point x="263.769" y="213.449"/>
      <point x="263.769" y="157.835" type="curve" smooth="yes"/>
      <point x="263.762" y="102.226"/>
      <point x="223.66" y="65.4512"/>
      <point x="171.376" y="65.4512" type="curve" smooth="yes"/>
      <point x="119.106" y="65.4512"/>
      <point x="78.9893" y="103.059"/>
      <point x="78.9893" y="157.837" type="curve" smooth="yes"/>
      <point x="79" y="212.613"/>
      <point x="117.015" y="250.222"/>
    </contour>
  </outline>
</glyph>
<glyph name="t.init" format="2">
  <advance width="190"/>
  <unicode hex="E039"/>
  <outline>
    <contour>
      <point x="24.8779" y="483.581" type="line"/>
      <point x="25.514" y="485.063"/>
      <point x="88.6652" y="628.854"/>
      <point x="94.9463" y="628.854" type="curve" smooth="yes"/>
      <point x="101.229" y="628.854"/>
      <point x="164.38" y="485.063"/>
      <point x="165.016" y="483.581" type="curve"/>
      <point x="152.809" y="483.581" type="line"/>
      <point x="94.9463" y="512.618" type="line"/>
      <point x="37.085" y="483.581" type="line"/>
    </contour>
    <contour>
      <point x="135.582" y="366.66" type="line"/>
      <point x="135.582" y="-204.019" type="line"/>
      <point x="113.848" y="-215.752"/>
      <point x="81.4082" y="-227.296"/>
      <point x="54.3203" y="-233.054" type="curve"/>
      <point x="54.3203" y="353.825" type="line"/>
      <point x="12.5928" y="398.587" type="line"/>
      <point x="35.5771" y="411.521"/>
      <point x="86.1299" y="436.437"/>
      <point x="113.324" y="446.391" type="curve"/>
      <point x="139.832" y="402.552" type="line"/>
      <point x="197.689" y="402.552" type="line"/>
      <point x="197.689" y="366.66" type="line"/>
    </contour>
  </outline>
</glyph>
<glyph name="t.medi" format="2">
  <advance width="190"/>
  <unicode hex="E03A"/>
  <outline>
    <contour>
      <point x="24.8809" y="483.581" type="line"/>
      <point x="25.517" y="485.063"/>
      <point x="88.6673" y="628.854"/>
      <point x="94.9492" y="628.854" type="curve" smooth="yes"/>
      <point x="101.232" y="628.854"/>
      <point x="164.382" y="485.063"/>
      <point x="165.019" y="483.581" type="curve"/>
      <point x="152.812" y="483.581" type="line"/>
      <point x="94.9492" y="512.618" type="line"/>
      <point x="37.0879" y="483.581" type="line"/>
    </contour>
    <contour>
      <point x="-7.78516" y="402.552" type="line"/>
      <point x="197.69" y="402.552" type="line"/>
      <point x="197.69" y="366.66" type="line"/>
      <point x="135.583" y="366.66" type="line"/>
      <point x="135.583" y="-204.013" type="line"/>
      <point x="113.849" y="-215.746"/>
      <point x="81.4082" y="-227.293"/>
      <point x="54.3213" y="-233.05" type="curve"/>
      <point x="54.3213" y="366.66" type="line"/>
      <point x="-7.78516" y="366.66" type="line"/>
    </contour>
  </outline>
</glyph>
<glyph name="t.fina" format="2">
  <advance width="190"/>
  <unicode hex="E03B"/>
  <outline>
    <contour>
      <point x="24.8789" y="483.581" type="line"/>
      <point x="25.515" y="485.063"/>
      <point x="88.6656" y="628.854"/>
      <point x="94.9482" y="628.854" type="curve" smooth="yes"/>
      <point x="101.231" y="628.854"/>
      <point x="164.381" y="485.063"/>
      <point x="165.018" y="483.581" type="curve"/>
      <point x="152.811" y="483.581" type="line"/>
      <point x="94.9482" y="512.618" type="line"/>
      <point x="37.0859" y="483.581" type="line"/>
    </contour>
    <contour>
      <point x="139.713" y="432.688" type="curve"/>
      <point x="137.648" y="415.483"/>
      <point x="135.584" y="369.188"/>
      <point x="135.584" y="331.711" type="curve" smooth="yes"/>
      <point x="135.584" y="-204.019" type="line"/>
      <point x="113.851" y="-215.752"/>
      <point x="81.4092" y="-227.298"/>
      <point x="54.3223" y="-233.056" type="curve"/>
      <point x="54.3223" y="366.66" type="line"/>
      <point x="-7.78516" y="366.66" type="line"/>
      <point x="-7.78516" y="402.552" type="line"/>
      <point x="37.124" y="402.552" type="line"/>
      <point x="73.4658" y="415.451"/>
      <point x="103.475" y="424.413"/>
    </contour>
  </outline>
</glyph>
<glyph name="u.fina" format="2">
  <advance width="190"/>
  <unicode hex="E03E"/>
  <outline>
    <contour>
      <point x="148.178" y="547.458" type="curve" smooth="yes"/>
      <point x="148.178" y="518.062"/>
      <point x="124.347" y="494.231"/>
      <point x="94.9512" y="494.231" type="curve" smooth="yes"/>
      <point x="65.5547" y="494.231"/>
      <point x="41.7236" y="518.062"/>
      <point x="41.7236" y="547.458" type="curve" smooth="yes"/>
      <point x="41.7236" y="576.854"/>
      <point x="65.5547" y="600.685"/>
      <point x="94.9512" y="600.685" type="curve" smooth="yes"/>
      <point x="124.347" y="600.685"/>
      <point x="148.178" y="576.854"/>
    </contour>
    <contour>
      <point x="139.713" y="432.688" type="curve"/>
      <point x="137.648" y="415.484"/>
      <point x="135.584" y="369.188"/>
      <point x="135.584" y="331.712" type="curve" smooth="yes"/>
      <point x="135.584" y="-204.018" type="line"/>
      <point x="113.851" y="-215.751"/>
      <point x="81.4092" y="-227.297"/>
      <point x="54.3223" y="-233.055" type="curve"/>
      <point x="54.3223" y="366.66" type="line"/>
      <point x="-7.78516" y="366.66" type="line"/>
      <point x="-7.78516" y="402.553" type="line"/>
      <point x="37.124" y="402.553" type="line"/>
      <point x="73.4658" y="415.452"/>
      <point x="103.475" y="424.414"/>
    </contour>
  </outline>
</glyph>
<glyph name="x.init" format="2">
  <advance width="566"/>
  <unicode hex="E045"/>
  <outline>
    <contour>
      <point x="90.6465" y="104.126" type="line"/>
      <point x="105.562" y="103.966"/>
      <point x="105.562" y="103.966"/>
      <point x="112.517" y="103.966" type="curve" smooth="yes"/>
      <point x="192.769" y="103.966"/>
      <point x="247.977" y="166.138"/>
      <point x="247.977" y="241.98" type="curve" smooth="yes"/>
      <point x="247.977" y="327.825"/>
      <point x="204.312" y="372.53"/>
      <point x="107.094" y="372.53" type="curve" smooth="yes"/>
      <point x="106.508" y="372.53"/>
      <point x="105.921" y="372.529"/>
      <point x="105.331" y="372.525" type="curve"/>
      <point x="105.331" y="393.818" type="line"/>
      <point x="166.553" y="409.436" type="line" smooth="yes"/>
      <point x="167.857" y="409.45"/>
      <point x="169.154" y="409.458"/>
      <point x="170.443" y="409.458" type="curve" smooth="yes"/>
      <point x="276.115" y="409.458"/>
      <point x="330.033" y="359.785"/>
      <point x="330.033" y="259.678" type="curve" smooth="yes"/>
      <point x="330.033" y="176.412"/>
      <point x="277.871" y="114.468"/>
      <point x="208.548" y="93.2891" type="curve" smooth="yes"/>
      <point x="207.608" y="93.002"/>
      <point x="137.923" y="72.7943"/>
      <point x="113.253" y="69.255" type="curve"/>
      <point x="142.917" y="41.9844"/>
      <point x="193.27" y="26.2139"/>
      <point x="251.369" y="26.2139" type="curve" smooth="yes"/>
      <point x="328.839" y="26.2139"/>
      <point x="400.856" y="69.9801"/>
      <point x="430.382" y="138.538" type="curve"/>
      <point x="430.382" y="355.891" type="line"/>
      <point x="388.654" y="400.651" type="line"/>
      <point x="411.639" y="413.585"/>
      <point x="462.189" y="438.504"/>
      <point x="489.384" y="448.458" type="curve"/>
      <point x="517.142" y="402.553" type="line"/>
      <point x="573.752" y="402.553" type="line"/>
      <point x="573.752" y="366.661" type="line"/>
      <point x="511.643" y="366.661" type="line"/>
      <point x="511.643" y="-204.013" type="line"/>
      <point x="489.909" y="-215.746"/>
      <point x="457.469" y="-227.292"/>
      <point x="430.382" y="-233.05" type="curve"/>
      <point x="430.382" y="52.9879" type="line"/>
      <point x="379.144" y="14.4902"/>
      <point x="247.219" y="-18.8614"/>
      <point x="245.284" y="-19.3164" type="curve" smooth="yes"/>
      <point x="238.309" y="-19.9465"/>
      <point x="231.101" y="-20.254"/>
      <point x="223.731" y="-20.254" type="curve" smooth="yes"/>
      <point x="140.449" y="-20.254"/>
      <point x="36.4653" y="19.0114"/>
      <point x="14.3232" y="75.8047" type="curve"/>
      <point x="14.3232" y="85.0449" type="line"/>
    </contour>
  </outline>
</glyph>
<glyph name="x.medi" format="2">
  <advance width="190"/>
  <unicode hex="E046"/>
  <outline>
    <contour>
      <point x="48.2383" y="402.552" type="line"/>
      <point x="53.1511" y="407.354"/>
      <point x="90.2147" y="443.432"/>
      <point x="94.9506" y="443.432" type="curve" smooth="yes"/>
      <point x="99.6599" y="443.432"/>
      <point x="135.617" y="408.466"/>
      <point x="141.669" y="402.552" type="curve"/>
      <point x="197.688" y="402.552" type="line"/>
      <point x="197.688" y="366.66" type="line"/>
      <point x="-7.78613" y="366.66" type="line"/>
      <point x="-7.78613" y="402.552" type="line"/>
    </contour>
    <contour>
      <point x="148.177" y="547.458" type="curve" smooth="yes"/>
      <point x="148.177" y="518.082"/>
      <point x="124.325" y="494.231"/>
      <point x="94.9492" y="494.231" type="curve" smooth="yes"/>
      <point x="65.5732" y="494.232"/>
      <point x="41.7236" y="518.082"/>
      <point x="41.7236" y="547.458" type="curve" smooth="yes"/>
      <point x="41.7236" y="576.834"/>
      <point x="65.5732" y="600.684"/>
      <point x="94.9492" y="600.685" type="curve" smooth="yes"/>
      <point x="124.325" y="600.685"/>
      <point x="148.177" y="576.835"/>
    </contour>
  </outline>
</glyph>
<glyph name="y.fina" format="2">
  <advance width="472"/>
  <unicode hex="E04A"/>
  <outline>
    <contour>
      <point x="198.716" y="77.9629" type="line"/>
      <point x="198.857" y="77.9567"/>
      <point x="200.533" y="77.8582"/>
      <point x="203.382" y="77.6909" type="curve" smooth="yes"/>
      <point x="223.048" y="76.5358"/>
      <point x="298.565" y="72.1006"/>
      <point x="309.987" y="72.1006" type="curve" smooth="yes"/>
      <point x="329.429" y="72.1006"/>
      <point x="336.401" y="77.7842"/>
      <point x="336.401" y="94.0859" type="curve" smooth="yes"/>
      <point x="336.401" y="366.66" type="line"/>
      <point x="-7.78516" y="366.66" type="line"/>
      <point x="-7.78516" y="402.552" type="line"/>
      <point x="319.203" y="402.552" type="line"/>
      <point x="355.545" y="415.451"/>
      <point x="385.554" y="424.413"/>
      <point x="421.792" y="432.688" type="curve"/>
      <point x="419.728" y="415.483"/>
      <point x="417.663" y="369.188"/>
      <point x="417.663" y="331.711" type="curve" smooth="yes"/>
      <point x="417.663" y="78.6162" type="line" smooth="yes"/>
      <point x="417.663" y="19.5859"/>
      <point x="403.769" y="-3.45117"/>
      <point x="305.067" y="-14.042" type="curve"/>
      <point x="290.2" y="39.8438"/>
      <point x="269.814" y="49.8828"/>
      <point x="198.716" y="58.498" type="curve"/>
    </contour>
    <contour>
      <point x="135.582" y="304.372" type="curve"/>
      <point x="135.582" y="-204.019" type="line"/>
      <point x="113.848" y="-215.752"/>
      <point x="81.4072" y="-227.299"/>
      <point x="54.3203" y="-233.057" type="curve"/>
      <point x="54.3203" y="237.136" type="line"/>
      <point x="18.3076" y="277.438" type="line"/>
      <point x="49.4834" y="287.168"/>
      <point x="102.514" y="299.855"/>
    </contour>
    <contour>
      <point x="211.556" y="625.013" type="curve" smooth="yes"/>
      <point x="240.951" y="625.013"/>
      <point x="264.784" y="603.132"/>
      <point x="264.784" y="569.554" type="curve" smooth="yes"/>
      <point x="264.784" y="544.663"/>
      <point x="252.381" y="516.821"/>
      <point x="229.188" y="496.01" type="curve"/>
      <point x="250.429" y="496.01" type="line" smooth="yes"/>
      <point x="273.874" y="496.01"/>
      <point x="316.714" y="498.161"/>
      <point x="332.773" y="499.378" type="curve"/>
      <point x="318.596" y="457.423" type="line"/>
      <point x="298.291" y="462.928"/>
      <point x="274.104" y="465.44"/>
      <point x="243.513" y="465.44" type="curve" smooth="yes"/>
      <point x="142.668" y="465.44" type="line" smooth="yes"/>
      <point x="116.576" y="465.44"/>
      <point x="101.93" y="465.172"/>
      <point x="94.5371" y="464.634" type="curve"/>
      <point x="100.74" y="497.622" type="line"/>
      <point x="105.714" y="496.682"/>
      <point x="117.763" y="496.01"/>
      <point x="125.352" y="496.01" type="curve" smooth="yes"/>
      <point x="164.6" y="496.01"/>
      <point x="201.478" y="507.65"/>
      <point x="221.591" y="534.233" type="curve"/>
      <point x="217.949" y="533.603"/>
      <point x="213.928" y="533.252"/>
      <point x="209.471" y="533.252" type="curve" smooth="yes"/>
      <point x="180.729" y="533.252"/>
      <point x="158.328" y="551.133"/>
      <point x="158.328" y="577.487" type="curve" smooth="yes"/>
      <point x="158.328" y="600.801"/>
      <point x="179.498" y="625.013"/>
    </contour>
  </outline>
</glyph>
<glyph name="z.fina" format="2">
  <advance width="190"/>
  <unicode hex="E04D"/>
  <outline>
    <contour>
      <point x="-122.291" y="-133.836" type="line"/>
      <point x="-53.5402" y="-136.877"/>
      <point x="10.2314" y="-139.698"/>
      <point x="27.9072" y="-139.698" type="curve" smooth="yes"/>
      <point x="47.3496" y="-139.698"/>
      <point x="54.3223" y="-134.013"/>
      <point x="54.3223" y="-117.711" type="curve" smooth="yes"/>
      <point x="54.3223" y="366.661" type="line"/>
      <point x="-7.78711" y="366.66" type="line"/>
      <point x="-7.78711" y="402.553" type="line"/>
      <point x="37.123" y="402.553" type="line"/>
      <point x="73.4648" y="415.452"/>
      <point x="103.475" y="424.414"/>
      <point x="139.712" y="432.688" type="curve"/>
      <point x="137.648" y="415.484"/>
      <point x="135.584" y="369.188"/>
      <point x="135.584" y="331.712" type="curve" smooth="yes"/>
      <point x="135.584" y="-133.182" type="line" smooth="yes"/>
      <point x="135.584" y="-192.213"/>
      <point x="121.694" y="-215.25"/>
      <point x="22.9932" y="-225.842" type="curve"/>
      <point x="7.96729" y="-171.384"/>
      <point x="7.31078" y="-169.005"/>
      <point x="-122.291" y="-153.301" type="curve"/>
    </contour>
  </outline>
</glyph>
<glyph name="xy_kashida" format="2">
  <advance width="87"/>
  <unicode hex="E04F"/>
  <outline>
    <contour>
      <point x="-7.7832" y="402.553" type="line"/>
      <point x="94.7773" y="402.553" type="line"/>
      <point x="94.7773" y="366.661" type="line"/>
      <point x="-7.7832" y="366.661" type="line"/>
    </contour>
  </outline>
</glyph>
<glyph name="z.long" format="2">
  <advance width="308"/>
  <unicode hex="E052"/>
  <outline>
    <contour>
      <point x="-3.89258" y="-133.832" type="line"/>
      <point x="63.8488" y="-136.83"/>
      <point x="128.559" y="-139.694"/>
      <point x="146.306" y="-139.694" type="curve" smooth="yes"/>
      <point x="165.747" y="-139.694"/>
      <point x="172.721" y="-134.009"/>
      <point x="172.721" y="-117.707" type="curve" smooth="yes"/>
      <point x="172.721" y="366.664" type="line"/>
      <point x="-7.78711" y="366.661" type="line"/>
      <point x="-7.78711" y="402.553" type="line"/>
      <point x="155.521" y="402.557" type="line"/>
      <point x="191.863" y="415.455"/>
      <point x="221.873" y="424.418"/>
      <point x="258.11" y="432.692" type="curve"/>
      <point x="256.046" y="415.488"/>
      <point x="253.982" y="369.192"/>
      <point x="253.982" y="331.716" type="curve" smooth="yes"/>
      <point x="253.982" y="-133.178" type="line" smooth="yes"/>
      <point x="253.982" y="-192.209"/>
      <point x="240.093" y="-215.246"/>
      <point x="141.392" y="-225.838" type="curve"/>
      <point x="126.366" y="-171.381"/>
      <point x="125.709" y="-169.001"/>
      <point x="-3.89258" y="-153.297" type="curve"/>
    </contour>
  </outline>
</glyph>
<glyph name="xy_fullstop" format="2">
  <advance width="257"/>
  <unicode hex="E080"/>
  <outline>
    <contour>
      <point x="128.368" y="402.37" type="curve" smooth="yes"/>
      <point x="178.909" y="402.37"/>
      <point x="219.805" y="361.419"/>
      <point x="219.805" y="310.901" type="curve" smooth="yes"/>
      <point x="219.805" y="260.384"/>
      <point x="178.91" y="219.433"/>
      <point x="128.37" y="219.433" type="curve" smooth="yes"/>
      <point x="77.8115" y="219.433"/>
      <point x="36.9014" y="260.384"/>
      <point x="36.9014" y="310.901" type="curve" smooth="yes"/>
      <point x="36.9014" y="361.419"/>
      <point x="77.8125" y="402.37"/>
    </contour>
    <contour>
      <point x="128.368" y="376.906" type="curve" smooth="yes"/>
      <point x="94.3281" y="376.906"/>
      <point x="66.7998" y="350.784"/>
      <point x="66.7998" y="310.901" type="curve" smooth="yes"/>
      <point x="66.7998" y="271.022"/>
      <point x="94.322" y="244.896"/>
      <point x="128.357" y="244.896" type="curve" smooth="yes"/>
      <point x="162.423" y="244.898"/>
      <point x="189.899" y="270.283"/>
      <point x="189.899" y="310.901" type="curve" smooth="yes"/>
      <point x="189.899" y="351.56"/>
      <point x="162.378" y="376.906"/>
    </contour>
  </outline>
</glyph>
<glyph name="xy_comma" format="2">
  <advance width="267"/>
  <unicode hex="E081"/>
  <outline>
    <contour>
      <point x="31.8916" y="400.63" type="curve"/>
      <point x="36.7539" y="413.769" type="line"/>
      <point x="146.244" y="404.523"/>
      <point x="217.289" y="351.481"/>
      <point x="217.289" y="307.199" type="curve" smooth="yes"/>
      <point x="217.289" y="273.136"/>
      <point x="194.909" y="245.399"/>
      <point x="172.522" y="245.399" type="curve" smooth="yes"/>
      <point x="154.409" y="245.399"/>
      <point x="144.525" y="263.128"/>
      <point x="130.368" y="288.522" type="curve" smooth="yes"/>
      <point x="112.572" y="320.443"/>
      <point x="88.0238" y="364.475"/>
    </contour>
  </outline>
</glyph>
<glyph name="xy_commacn" format="2">
  <advance width="179"/>
  <unicode hex="E082"/>
  <outline>
    <contour>
      <point x="83.749" y="302.225" type="curve" smooth="yes"/>
      <point x="52.041" y="302.225"/>
      <point x="29.9707" y="327.023"/>
      <point x="29.9707" y="350.508" type="curve" smooth="yes"/>
      <point x="29.9707" y="379.434"/>
      <point x="47.3848" y="398.166"/>
      <point x="86.5293" y="405.245" type="curve" smooth="yes"/>
      <point x="95.9678" y="406.953"/>
      <point x="101.456" y="411.42"/>
      <point x="101.456" y="422.757" type="curve" smooth="yes"/>
      <point x="101.456" y="448.339"/>
      <point x="81.0781" y="480.584"/>
      <point x="28.1611" y="511.878" type="curve"/>
      <point x="49.7822" y="537.274" type="line"/>
      <point x="118.796" y="502.35"/>
      <point x="158.941" y="447.681"/>
      <point x="158.941" y="389.438" type="curve" smooth="yes"/>
      <point x="158.941" y="334.668"/>
      <point x="133.458" y="302.225"/>
    </contour>
  </outline>
</glyph>
<glyph name="xy_exclamdown" format="2">
  <advance width="201"/>
  <unicode hex="E083"/>
  <outline>
    <contour>
      <point x="40.2705" y="318.921" type="line"/>
      <point x="73.2139" y="333.738"/>
      <point x="73.2139" y="333.738"/>
      <point x="73.2139" y="341.151" type="curve" smooth="yes"/>
      <point x="73.2139" y="354.378"/>
      <point x="59.8906" y="379.72"/>
      <point x="30.4121" y="409.295" type="curve"/>
      <point x="36.0996" y="418.957" type="line"/>
      <point x="85.6836" y="414.931"/>
      <point x="180.836" y="386.736"/>
      <point x="180.836" y="313.238" type="curve" smooth="yes"/>
      <point x="180.836" y="295.29"/>
      <point x="173.549" y="281.806"/>
      <point x="153.656" y="281.806" type="curve" smooth="yes"/>
      <point x="143.51" y="281.806"/>
      <point x="131.032" y="286.089"/>
      <point x="115.634" y="291.375" type="curve" smooth="yes"/>
      <point x="96.3623" y="297.991"/>
      <point x="72.5162" y="306.177"/>
      <point x="42.9414" y="309.502" type="curve"/>
    </contour>
    <contour>
      <point x="44.9424" y="-141.605" type="curve" smooth="yes"/>
      <point x="44.9424" y="-126.872"/>
      <point x="46.6393" y="-112.934"/>
      <point x="48.827" y="-94.9647" type="curve" smooth="yes"/>
      <point x="52.7945" y="-62.3767"/>
      <point x="58.376" y="-16.5323"/>
      <point x="58.376" y="71.3535" type="curve" smooth="yes"/>
      <point x="58.376" y="246.04"/>
      <point x="55.7446" y="255.031"/>
      <point x="28.6425" y="272.239" type="curve" smooth="yes"/>
      <point x="26.7083" y="273.467"/>
      <point x="24.6812" y="274.754"/>
      <point x="22.2393" y="276.64" type="curve"/>
      <point x="30.3535" y="277.997"/>
      <point x="37.3496" y="278.195"/>
      <point x="43.5225" y="278.195" type="curve" smooth="yes"/>
      <point x="75.0752" y="278.195"/>
      <point x="165.122" y="222.151"/>
      <point x="165.122" y="203.237" type="curve" smooth="yes"/>
      <point x="165.122" y="194.072"/>
      <point x="160.956" y="190.273"/>
      <point x="155.473" y="185.274" type="curve" smooth="yes"/>
      <point x="144.924" y="175.655"/>
      <point x="129.5" y="161.591"/>
      <point x="129.5" y="96.3037" type="curve" smooth="yes"/>
      <point x="129.5" y="-19.4497"/>
      <point x="142.402" y="-111.232"/>
      <point x="145.445" y="-132.88" type="curve" smooth="yes"/>
      <point x="145.852" y="-135.774"/>
      <point x="146.083" y="-137.415"/>
      <point x="146.083" y="-137.691" type="curve" smooth="yes"/>
      <point x="146.083" y="-194.146"/>
      <point x="111.314" y="-231.9"/>
      <point x="93.1289" y="-231.9" type="curve" smooth="yes"/>
      <point x="65.1289" y="-231.9"/>
      <point x="44.9424" y="-199.639"/>
    </contour>
  </outline>
</glyph>
<glyph name="xy_period" format="2">
  <advance width="179"/>
  <unicode hex="E087"/>
  <outline>
    <contour>
      <point x="149.342" y="361.979" type="curve" smooth="yes"/>
      <point x="149.342" y="329.001"/>
      <point x="122.568" y="302.227"/>
      <point x="89.5908" y="302.226" type="curve" smooth="yes"/>
      <point x="56.6123" y="302.227"/>
      <point x="29.8389" y="329.001"/>
      <point x="29.8389" y="361.979" type="curve" smooth="yes"/>
      <point x="29.8389" y="394.957"/>
      <point x="56.6123" y="421.73"/>
      <point x="89.5908" y="421.731" type="curve" smooth="yes"/>
      <point x="122.568" y="421.73"/>
      <point x="149.342" y="394.957"/>
    </contour>
  </outline>
</glyph>
<glyph name="xy_apos" format="2">
  <advance width="140"/>
  <unicode hex="E089"/>
  <outline>
    <contour>
      <point x="56.8311" y="282.233" type="curve"/>
      <point x="35.3047" y="297.349"/>
      <point x="18.502" y="331.157"/>
      <point x="18.502" y="362.383" type="curve" smooth="yes"/>
      <point x="18.502" y="410.567"/>
      <point x="49.5547" y="453.839"/>
      <point x="121.607" y="475.51" type="curve"/>
      <point x="121.607" y="456.97" type="line"/>
      <point x="98.2422" y="444.601"/>
      <point x="85.9492" y="425.124"/>
      <point x="85.9492" y="401.45" type="curve" smooth="yes"/>
      <point x="85.9492" y="376.439"/>
      <point x="109.321" y="347.935"/>
      <point x="126.728" y="334.845" type="curve"/>
      <point x="126.728" y="323.166" type="line"/>
      <point x="103.693" y="314.677"/>
      <point x="73.3467" y="297.752"/>
    </contour>
  </outline>
</glyph>
<glyph name="xy_lentleft" format="2">
  <advance width="299"/>
  <unicode hex="E08F"/>
  <outline>
    <contour>
      <point x="79.1074" y="590.664" type="curve"/>
      <point x="271.729" y="590.664" type="line"/>
      <point x="271.729" y="574.682" type="line"/>
      <point x="211.58" y="545.796"/>
      <point x="160.399" y="439.745"/>
      <point x="160.399" y="295.333" type="curve" smooth="yes"/>
      <point x="160.399" y="150.921"/>
      <point x="211.58" y="44.8701"/>
      <point x="271.729" y="15.9844" type="curve"/>
      <point x="271.729" y="0.00195312" type="line"/>
      <point x="79.1074" y="0.00195312" type="line"/>
      <point x="79.1074" y="196.889"/>
      <point x="79.1074" y="393.777"/>
    </contour>
  </outline>
</glyph>
<glyph name="xy_kikkoleft" format="2">
  <advance width="323"/>
  <unicode hex="E097"/>
  <outline>
    <contour>
      <point x="253.027" y="600.188" type="line"/>
      <point x="276.407" y="561.319" type="line"/>
      <point x="128.89" y="490.588" type="line"/>
      <point x="128.89" y="102.017" type="line"/>
      <point x="276.407" y="31.2861" type="line"/>
      <point x="253.027" y="-7.58594" type="line"/>
      <point x="79.1143" y="72.124" type="line"/>
      <point x="79.1143" y="520.5" type="line"/>
    </contour>
  </outline>
</glyph>
<glyph name="xy_kikkowhiteleft" format="2">
  <advance width="358"/>
  <unicode hex="E099"/>
  <outline>
    <contour>
      <point x="288.332" y="632.587" type="curve"/>
      <point x="337.748" y="550.499" type="line"/>
      <point x="179.489" y="474.676" type="line"/>
      <point x="179.489" y="117.917" type="line"/>
      <point x="337.748" y="42.1084" type="line"/>
      <point x="288.332" y="-40.0088" type="line"/>
      <point x="79.1143" y="55.873" type="line"/>
      <point x="79.1143" y="536.748" type="line"/>
      <point x="85.1836" y="539.529"/>
      <point x="91.2529" y="542.309"/>
      <point x="97.3223" y="545.09" type="curve" smooth="yes"/>
      <point x="160.989" y="574.259"/>
      <point x="224.655" y="603.428"/>
    </contour>
    <contour>
      <point x="277.548" y="597.686" type="line"/>
      <point x="106.371" y="519.262" type="line"/>
      <point x="106.371" y="73.3604" type="line"/>
      <point x="277.548" y="-5.09277" type="line"/>
      <point x="298.94" y="30.4844" type="line"/>
      <point x="152.247" y="100.761" type="line"/>
      <point x="152.247" y="491.832" type="line"/>
      <point x="298.94" y="562.123" type="line"/>
    </contour>
  </outline>
</glyph>
<glyph name="xy_yamaleft" format="2">
  <advance width="260"/>
  <unicode hex="E09B"/>
  <outline>
    <contour>
      <point x="39.1748" y="294.359" type="line"/>
      <point x="183.676" y="588.718" type="line"/>
      <point x="237.351" y="588.718" type="line"/>
      <point x="92.8496" y="294.359" type="line"/>
      <point x="237.351" y="0" type="line"/>
      <point x="183.676" y="0" type="line"/>
    </contour>
  </outline>
</glyph>
<glyph name="xy_yamaright" format="2">
  <advance width="260"/>
  <unicode hex="E09C"/>
  <outline>
    <contour>
      <point x="220.688" y="294.359" type="line"/>
      <point x="76.1865" y="0" type="line"/>
      <point x="22.5117" y="0" type="line"/>
      <point x="167.013" y="294.359" type="line"/>
      <point x="22.5117" y="588.718" type="line"/>
      <point x="76.1865" y="588.718" type="line"/>
    </contour>
  </outline>
</glyph>
<glyph name="xy_wakai" format="2">
  <advance width="832"/>
  <unicode hex="E110"/>
  <outline>
    <contour>
      <point x="430.303" y="109.782" type="curve" smooth="yes"/>
      <point x="414.835" y="109.782"/>
      <point x="407.087" y="122.961"/>
      <point x="395.851" y="142.071" type="curve" smooth="yes"/>
      <point x="380.983" y="167.357"/>
      <point x="360.01" y="203.03"/>
      <point x="306.967" y="232.302" type="curve"/>
      <point x="306.967" y="-201.564" type="line"/>
      <point x="283.352" y="-214.313"/>
      <point x="262.68" y="-223.696"/>
      <point x="239.822" y="-230.926" type="curve"/>
      <point x="239.822" y="196.563" type="line"/>
      <point x="191.286" y="120.423"/>
      <point x="112.862" y="45.4856"/>
      <point x="27.999" y="-14.0801" type="curve"/>
      <point x="17.4053" y="-0.419922" type="line"/>
      <point x="111.744" y="83.7692"/>
      <point x="206.841" y="227.423"/>
      <point x="238.928" y="349.739" type="curve"/>
      <point x="212.757" y="349.739" type="line" smooth="yes"/>
      <point x="160.023" y="349.739"/>
      <point x="99.9922" y="344.096"/>
      <point x="58.8242" y="334.773" type="curve"/>
      <point x="28.3232" y="383.022" type="line"/>
      <point x="59.8096" y="381.575"/>
      <point x="108.262" y="380.278"/>
      <point x="153.696" y="380.278" type="curve" smooth="yes"/>
      <point x="239.822" y="380.278" type="line"/>
      <point x="239.822" y="500.876" type="line"/>
      <point x="177.645" y="490.53"/>
      <point x="112.69" y="481.56"/>
      <point x="46.6924" y="475.43" type="curve"/>
      <point x="42.4404" y="498.849" type="line"/>
      <point x="176.649" y="523.791"/>
      <point x="318.458" y="558.77"/>
      <point x="413.146" y="610.828" type="curve"/>
      <point x="508.982" y="531.798" type="line"/>
      <point x="505.271" y="530.728"/>
      <point x="500.192" y="530.269"/>
      <point x="494.277" y="530.269" type="curve" smooth="yes"/>
      <point x="476.908" y="530.269"/>
      <point x="452.325" y="534.232"/>
      <point x="433.951" y="538.354" type="curve"/>
      <point x="393.973" y="529.749"/>
      <point x="351.409" y="521.01"/>
      <point x="306.967" y="512.732" type="curve"/>
      <point x="306.967" y="380.278" type="line"/>
      <point x="343.647" y="380.278" type="line"/>
      <point x="407.166" y="435.777" type="line"/>
      <point x="458.649" y="392.533"/>
      <point x="486.881" y="366.111"/>
      <point x="486.881" y="355.343" type="curve" smooth="yes"/>
      <point x="486.881" y="351.591"/>
      <point x="483.453" y="349.739"/>
      <point x="476.385" y="349.739" type="curve" smooth="yes"/>
      <point x="306.967" y="349.739" type="line"/>
      <point x="306.967" y="254.145" type="line"/>
      <point x="411.785" y="230.258"/>
      <point x="465.181" y="204.78"/>
      <point x="465.181" y="157.063" type="curve" smooth="yes"/>
      <point x="465.181" y="134.235"/>
      <point x="451.557" y="109.782"/>
    </contour>
    <contour>
      <point x="755.625" y="448.116" type="line"/>
      <point x="782.087" y="430.433"/>
      <point x="813.883" y="403.703"/>
      <point x="837.998" y="382.368" type="curve"/>
      <point x="796.102" y="351.852" type="line"/>
      <point x="796.102" y="-68.0947" type="line"/>
      <point x="775.164" y="-79.1406"/>
      <point x="751.328" y="-89.4961"/>
      <point x="728.949" y="-95.9961" type="curve"/>
      <point x="728.949" y="2.88311e-15" type="line"/>
      <point x="557.287" y="-1.08802e-14" type="line"/>
      <point x="557.287" y="-106.666" type="line"/>
      <point x="533.68" y="-119.415"/>
      <point x="510.814" y="-128.068"/>
      <point x="490.143" y="-133.838" type="curve"/>
      <point x="490.143" y="325.58" type="line" smooth="yes"/>
      <point x="490.143" y="366.301"/>
      <point x="487.898" y="433.523"/>
      <point x="485.662" y="452.217" type="curve"/>
      <point x="513.691" y="437.286"/>
      <point x="540.006" y="421.521"/>
      <point x="568.514" y="402.553" type="curve"/>
      <point x="726.481" y="402.553" type="line"/>
    </contour>
    <contour>
      <point x="728.949" y="30.5391" type="line"/>
      <point x="728.949" y="372.014" type="line"/>
      <point x="557.287" y="372.014" type="line"/>
      <point x="557.287" y="30.5391" type="line"/>
    </contour>
  </outline>
</glyph>
<glyph name="xy_wasou" format="2">
  <advance width="933"/>
  <unicode hex="E111"/>
  <outline>
    <contour>
      <point x="357.766" y="718.768" type="curve" smooth="yes"/>
      <point x="357.766" y="729.628"/>
      <point x="354.62" y="734.445"/>
      <point x="341.11" y="755.133" type="curve"/>
      <point x="341.791" y="755.172"/>
      <point x="342.472" y="755.192"/>
      <point x="343.153" y="755.192" type="curve" smooth="yes"/>
      <point x="384.142" y="755.192"/>
      <point x="427.434" y="684.628"/>
      <point x="427.434" y="649.089" type="curve" smooth="yes"/>
      <point x="427.434" y="618.692"/>
      <point x="424.982" y="618.052"/>
      <point x="394.233" y="610.029" type="curve" smooth="yes"/>
      <point x="382.366" y="606.933"/>
      <point x="331.377" y="580.017"/>
      <point x="249.306" y="528.545" type="curve"/>
      <point x="284.91" y="514.517"/>
      <point x="318.122" y="487.417"/>
      <point x="346.246" y="450.104" type="curve"/>
      <point x="355.598" y="454.56"/>
      <point x="362.808" y="457.273"/>
      <point x="366.527" y="457.273" type="curve" smooth="yes"/>
      <point x="400.729" y="457.273"/>
      <point x="435.343" y="444.607"/>
      <point x="435.343" y="424.77" type="curve" smooth="yes"/>
      <point x="435.343" y="412.471"/>
      <point x="429.591" y="407.049"/>
      <point x="416.006" y="394.244" type="curve" smooth="yes"/>
      <point x="409.696" y="388.296"/>
      <point x="401.696" y="380.756"/>
      <point x="391.797" y="370.194" type="curve" smooth="yes"/>
      <point x="392.27" y="369.086"/>
      <point x="392.739" y="367.974"/>
      <point x="393.205" y="366.858" type="curve"/>
      <point x="414.734" y="379.643"/>
      <point x="444.764" y="388.95"/>
      <point x="476.68" y="388.95" type="curve" smooth="yes"/>
      <point x="509.219" y="388.95"/>
      <point x="544.325" y="373.573"/>
      <point x="570.876" y="347.216" type="curve"/>
      <point x="627.508" y="395.822"/>
      <point x="690.592" y="419.24"/>
      <point x="750.409" y="419.24" type="curve" smooth="yes"/>
      <point x="831.635" y="419.24"/>
      <point x="890.731" y="372.654"/>
      <point x="890.731" y="282.163" type="curve" smooth="yes"/>
      <point x="890.731" y="181.127"/>
      <point x="771.861" y="104.078"/>
      <point x="573.656" y="44.6621" type="curve"/>
      <point x="564.145" y="59.3096" type="line"/>
      <point x="724.116" y="135.612"/>
      <point x="800.663" y="239.275"/>
      <point x="800.663" y="309.427" type="curve" smooth="yes"/>
      <point x="800.663" y="350.718"/>
      <point x="780.845" y="386.588"/>
      <point x="738.992" y="386.588" type="curve" smooth="yes"/>
      <point x="675.834" y="386.588"/>
      <point x="633.931" y="346.115"/>
      <point x="619.46" y="256.729" type="curve" smooth="yes"/>
      <point x="611.992" y="210.607"/>
      <point x="597.919" y="196.838"/>
      <point x="581.918" y="196.838" type="curve" smooth="yes"/>
      <point x="557.501" y="196.838"/>
      <point x="526.286" y="215.694"/>
      <point x="502.186" y="299.757" type="curve" smooth="yes"/>
      <point x="491.231" y="337.985"/>
      <point x="475.135" y="359.676"/>
      <point x="455.529" y="359.676" type="curve" smooth="yes"/>
      <point x="441.119" y="359.676"/>
      <point x="422.197" y="356.473"/>
      <point x="401.054" y="346.718" type="curve"/>
      <point x="421.232" y="291.157"/>
      <point x="433.025" y="226.235"/>
      <point x="433.025" y="155.567" type="curve" smooth="yes"/>
      <point x="433.025" y="49.6201"/>
      <point x="348.319" y="-37.7637"/>
      <point x="329.759" y="-37.7637" type="curve" smooth="yes"/>
      <point x="316.61" y="-37.7637"/>
      <point x="313.874" y="-31.6358"/>
      <point x="302.192" y="-5.47056" type="curve" smooth="yes"/>
      <point x="271.7" y="62.8227"/>
      <point x="241.378" y="130.737"/>
      <point x="92.1797" y="170.713" type="curve" smooth="yes"/>
      <point x="53.2852" y="181.136"/>
      <point x="40.7568" y="188.91"/>
      <point x="40.7568" y="215.627" type="curve" smooth="yes"/>
      <point x="40.7568" y="266.418"/>
      <point x="147.575" y="331.997"/>
      <point x="240.594" y="389.104" type="curve" smooth="yes"/>
      <point x="262.295" y="402.427"/>
      <point x="292.995" y="421.274"/>
      <point x="318.971" y="435.776" type="curve"/>
      <point x="296.102" y="467.605"/>
      <point x="264.204" y="489.94"/>
      <point x="221.122" y="498.312" type="curve" smooth="yes"/>
      <point x="202.619" y="501.907"/>
      <point x="184.64" y="510.7"/>
      <point x="184.64" y="517.509" type="curve" smooth="yes"/>
      <point x="184.64" y="536.635"/>
      <point x="219.404" y="566.034"/>
      <point x="257.776" y="598.483" type="curve" smooth="yes"/>
      <point x="305.035" y="638.447"/>
      <point x="357.766" y="683.038"/>
    </contour>
    <contour>
      <point x="361.757" y="321.903" type="curve"/>
      <point x="325.58" y="292.515"/>
      <point x="304.773" y="257.5"/>
      <point x="288.645" y="230.36" type="curve" smooth="yes"/>
      <point x="273.326" y="204.581"/>
      <point x="262.229" y="185.907"/>
      <point x="246.193" y="185.907" type="curve" smooth="yes"/>
      <point x="232.031" y="185.907"/>
      <point x="207.887" y="203.158"/>
      <point x="207.887" y="231.477" type="curve" smooth="yes"/>
      <point x="207.887" y="277.029"/>
      <point x="223.381" y="286.684"/>
      <point x="270.89" y="316.288" type="curve" smooth="yes"/>
      <point x="294.386" y="330.923"/>
      <point x="322.693" y="355.457"/>
      <point x="346.884" y="381.15" type="curve" smooth="yes"/>
      <point x="345.439" y="385.207"/>
      <point x="343.913" y="389.191"/>
      <point x="342.304" y="393.097" type="curve"/>
      <point x="240.739" y="335.813"/>
      <point x="121.71" y="242.379"/>
      <point x="121.71" y="205.404" type="curve" smooth="yes"/>
      <point x="121.71" y="183.654"/>
      <point x="121.71" y="183.654"/>
      <point x="293.968" y="119.749" type="curve" smooth="yes"/>
      <point x="298.707" y="117.991"/>
      <point x="303.6" y="117.096"/>
      <point x="308.506" y="117.096" type="curve" smooth="yes"/>
      <point x="336.96" y="117.096"/>
      <point x="365.871" y="147.19"/>
      <point x="367.911" y="213.488" type="curve" smooth="yes"/>
      <point x="368.136" y="220.79"/>
      <point x="368.252" y="228.052"/>
      <point x="368.252" y="235.263" type="curve" smooth="yes"/>
      <point x="368.252" y="265.361"/>
      <point x="366.238" y="294.555"/>
    </contour>
  </outline>
</glyph>
<glyph name="ampersand.latn" format="2">
  <advance width="671"/>
  <unicode hex="E112"/>
  <outline>
    <contour>
      <point x="301.788" y="598.712" type="curve" smooth="yes"/>
      <point x="373.781" y="598.712"/>
      <point x="422.696" y="563.66"/>
      <point x="422.696" y="511.24" type="curve" smooth="yes"/>
      <point x="422.696" y="466.237"/>
      <point x="368.809" y="429.438"/>
      <point x="290.93" y="381.231" type="curve" smooth="yes"/>
      <point x="268.429" y="367.303" type="line"/>
      <point x="277.132" y="356.728"/>
      <point x="286.628" y="345.509"/>
      <point x="296.889" y="333.503" type="curve" smooth="yes"/>
      <point x="412.544" y="198.161" type="line" smooth="yes"/>
      <point x="430.835" y="176.757"/>
      <point x="447.218" y="157.935"/>
      <point x="462.081" y="141.37" type="curve"/>
      <point x="498.163" y="191.284"/>
      <point x="518.636" y="249.618"/>
      <point x="518.636" y="296.439" type="curve" smooth="yes"/>
      <point x="518.636" y="322.432"/>
      <point x="506.747" y="335.29"/>
      <point x="463.048" y="338.929" type="curve"/>
      <point x="463.048" y="356.934" type="line"/>
      <point x="636.469" y="356.934" type="line"/>
      <point x="636.469" y="339.415" type="line"/>
      <point x="596.293" y="335.523"/>
      <point x="578.836" y="323.66"/>
      <point x="565.756" y="281.633" type="curve" smooth="yes"/>
      <point x="545.881" y="217.762"/>
      <point x="518.61" y="161.849"/>
      <point x="485.276" y="116.046" type="curve"/>
      <point x="563.394" y="32.8056"/>
      <point x="596.447" y="21.2157"/>
      <point x="662.681" y="15.7441" type="curve"/>
      <point x="662.681" y="0" type="line"/>
      <point x="550.182" y="0" type="line" smooth="yes"/>
      <point x="504.032" y="0"/>
      <point x="483.636" y="2.13922"/>
      <point x="431.488" y="55.7286" type="curve"/>
      <point x="377.203" y="6.6498"/>
      <point x="312.456" y="-20.7891"/>
      <point x="240.838" y="-20.7891" type="curve" smooth="yes"/>
      <point x="121.409" y="-20.7891"/>
      <point x="32.0469" y="51.8457"/>
      <point x="32.0469" y="151.353" type="curve" smooth="yes"/>
      <point x="32.0469" y="245.689"/>
      <point x="106.116" y="297.166"/>
      <point x="186.352" y="346.538" type="curve"/>
      <point x="156.922" y="388.322"/>
      <point x="139.22" y="425.512"/>
      <point x="139.22" y="459.116" type="curve" smooth="yes"/>
      <point x="139.22" y="540.323"/>
      <point x="217.48" y="598.712"/>
    </contour>
    <contour>
      <point x="252.583" y="387.004" type="curve"/>
      <point x="266.608" y="395.57" type="line" smooth="yes"/>
      <point x="325.228" y="431.369"/>
      <point x="353.705" y="457.868"/>
      <point x="353.705" y="501.556" type="curve" smooth="yes"/>
      <point x="353.705" y="543.451"/>
      <point x="320.21" y="572.268"/>
      <point x="281.881" y="572.268" type="curve" smooth="yes"/>
      <point x="232.216" y="572.268"/>
      <point x="200.869" y="540.082"/>
      <point x="200.869" y="496.286" type="curve" smooth="yes"/>
      <point x="200.869" y="462.465"/>
      <point x="218.904" y="430.06"/>
    </contour>
    <contour>
      <point x="406.473" y="82.6049" type="curve"/>
      <point x="388.29" y="102.824"/>
      <point x="366.724" y="127.985"/>
      <point x="340.367" y="159.296" type="curve" smooth="yes"/>
      <point x="233.261" y="286.537" type="line" smooth="yes"/>
      <point x="222.05" y="299.855"/>
      <point x="211.588" y="312.753"/>
      <point x="202.02" y="325.254" type="curve"/>
      <point x="153.147" y="291.454"/>
      <point x="111.161" y="249.725"/>
      <point x="111.161" y="187.323" type="curve" smooth="yes"/>
      <point x="111.161" y="93.9785"/>
      <point x="188.156" y="32.4746"/>
      <point x="270.073" y="32.4746" type="curve" smooth="yes"/>
      <point x="322.209" y="32.4746"/>
      <point x="368.445" y="52.338"/>
    </contour>
  </outline>
</glyph>
<glyph name="xy_one" format="2">
  <advance width="309"/>
  <unicode hex="E115"/>
  <outline>
    <contour>
      <point x="157.132" y="62.2871" type="curve" smooth="yes"/>
      <point x="157.132" y="64.0063"/>
      <point x="157.948" y="67.0451"/>
      <point x="159.195" y="71.6867" type="curve" smooth="yes"/>
      <point x="163.224" y="86.6879"/>
      <point x="171.75" y="118.43"/>
      <point x="171.75" y="176.467" type="curve" smooth="yes"/>
      <point x="171.75" y="194.512"/>
      <point x="170.78" y="208.717"/>
      <point x="168.837" y="220.103" type="curve"/>
      <point x="124.355" y="171.946"/>
      <point x="73.8641" y="124.506"/>
      <point x="33.3115" y="91.4326" type="curve"/>
      <point x="21.9082" y="103.443" type="line"/>
      <point x="86.3018" y="177.659"/>
      <point x="177.827" y="335.21"/>
      <point x="177.827" y="393.956" type="curve" smooth="yes"/>
      <point x="177.827" y="411.098"/>
      <point x="168.308" y="427.013"/>
      <point x="154.668" y="441.092" type="curve"/>
      <point x="158.451" y="442.429"/>
      <point x="162.448" y="443.052"/>
      <point x="166.6" y="443.052" type="curve" smooth="yes"/>
      <point x="213.876" y="443.052"/>
      <point x="281.266" y="362.296"/>
      <point x="281.266" y="335.369" type="curve" smooth="yes"/>
      <point x="281.266" y="328.828"/>
      <point x="276.763" y="326.387"/>
      <point x="268.793" y="322.065" type="curve" smooth="yes"/>
      <point x="258.375" y="316.416"/>
      <point x="242.032" y="307.555"/>
      <point x="222.077" y="282.126" type="curve" smooth="yes"/>
      <point x="213.264" y="270.894"/>
      <point x="203.687" y="259.354"/>
      <point x="193.575" y="247.703" type="curve"/>
      <point x="224.346" y="225.856"/>
      <point x="244.272" y="201.41"/>
      <point x="244.272" y="182.862" type="curve" smooth="yes"/>
      <point x="244.272" y="181.25"/>
      <point x="244.198" y="179.181"/>
      <point x="244.091" y="176.184" type="curve" smooth="yes"/>
      <point x="243.807" y="168.302"/>
      <point x="243.294" y="154.001"/>
      <point x="243.294" y="124.711" type="curve" smooth="yes"/>
      <point x="243.294" y="96.3498"/>
      <point x="243.35" y="59.6199"/>
      <point x="243.365" y="49.8302" type="curve" smooth="yes"/>
      <point x="243.367" y="48.3249"/>
      <point x="243.368" y="47.4566"/>
      <point x="243.368" y="47.3535" type="curve" smooth="yes"/>
      <point x="243.368" y="15.2354"/>
      <point x="228.338" y="-15.208"/>
      <point x="215.743" y="-15.208" type="curve" smooth="yes"/>
      <point x="189.252" y="-15.208"/>
      <point x="157.132" y="50.0312"/>
    </contour>
  </outline>
</glyph>
<glyph name="xy_four" format="2">
  <advance width="395"/>
  <unicode hex="E118"/>
  <outline>
    <contour>
      <point x="46.3623" y="183.327" type="curve" smooth="yes"/>
      <point x="46.3623" y="279.064"/>
      <point x="112.354" y="328.262"/>
      <point x="165.507" y="367.888" type="curve" smooth="yes"/>
      <point x="201.344" y="394.605"/>
      <point x="231.345" y="416.971"/>
      <point x="231.345" y="446.317" type="curve" smooth="yes"/>
      <point x="231.345" y="453.374"/>
      <point x="229.68" y="460.817"/>
      <point x="226.212" y="468.886" type="curve"/>
      <point x="227.089" y="469.044"/>
      <point x="227.976" y="469.121"/>
      <point x="228.87" y="469.121" type="curve" smooth="yes"/>
      <point x="260.023" y="469.121"/>
      <point x="300.829" y="375.275"/>
      <point x="300.829" y="334.211" type="curve" smooth="yes"/>
      <point x="300.829" y="322.712"/>
      <point x="297.629" y="315.352"/>
      <point x="290.12" y="315.352" type="curve" smooth="yes"/>
      <point x="290.085" y="315.352"/>
      <point x="289.664" y="315.361"/>
      <point x="288.955" y="315.378" type="curve" smooth="yes"/>
      <point x="285.209" y="315.466"/>
      <point x="273.434" y="315.743"/>
      <point x="268.308" y="315.743" type="curve" smooth="yes"/>
      <point x="162.826" y="315.743"/>
      <point x="81.7773" y="252.865"/>
      <point x="81.7773" y="178.646" type="curve" smooth="yes"/>
      <point x="81.7773" y="104.488"/>
      <point x="151.71" y="77.1191"/>
      <point x="213.573" y="77.1191" type="curve" smooth="yes"/>
      <point x="247.456" y="77.1191"/>
      <point x="265.334" y="81.6813"/>
      <point x="277.514" y="84.7893" type="curve" smooth="yes"/>
      <point x="283.805" y="86.3948"/>
      <point x="288.576" y="87.6123"/>
      <point x="293.247" y="87.6123" type="curve" smooth="yes"/>
      <point x="310.91" y="87.6123"/>
      <point x="382.241" y="43.8223"/>
      <point x="382.241" y="14.0664" type="curve" smooth="yes"/>
      <point x="382.241" y="0.0429688"/>
      <point x="353.616" y="-19.4775"/>
      <point x="309.395" y="-19.4775" type="curve" smooth="yes"/>
      <point x="129" y="-19.4775"/>
      <point x="46.3623" y="81.167"/>
    </contour>
  </outline>
</glyph>
<glyph name="xy_five" format="2">
  <advance width="381"/>
  <unicode hex="E119"/>
  <outline>
    <contour>
      <point x="294.645" y="300.371" type="curve" smooth="yes"/>
      <point x="286.001" y="300.371"/>
      <point x="276.106" y="302.6"/>
      <point x="264.278" y="305.265" type="curve" smooth="yes"/>
      <point x="246.712" y="309.223"/>
      <point x="224.883" y="314.141"/>
      <point x="196.564" y="314.141" type="curve" smooth="yes"/>
      <point x="131.119" y="314.141"/>
      <point x="70.25" y="267.935"/>
      <point x="70.25" y="193.393" type="curve" smooth="yes"/>
      <point x="70.25" y="122.945"/>
      <point x="134.665" y="76.8936"/>
      <point x="220.915" y="76.8936" type="curve" smooth="yes"/>
      <point x="251.37" y="76.8936"/>
      <point x="266.647" y="81.2295"/>
      <point x="275.912" y="83.859" type="curve" smooth="yes"/>
      <point x="279.943" y="85.0032"/>
      <point x="282.836" y="85.8242"/>
      <point x="285.346" y="85.8242" type="curve" smooth="yes"/>
      <point x="310.749" y="85.8242"/>
      <point x="364.755" y="37.6836"/>
      <point x="364.755" y="15.4502" type="curve" smooth="yes"/>
      <point x="364.755" y="-2.9541"/>
      <point x="328.566" y="-16.2148"/>
      <point x="263.173" y="-16.2148" type="curve" smooth="yes"/>
      <point x="131.994" y="-16.2148"/>
      <point x="40.5576" y="80.9053"/>
      <point x="40.5576" y="188.089" type="curve" smooth="yes"/>
      <point x="40.5576" y="261.459"/>
      <point x="83.8818" y="312.843"/>
      <point x="129.662" y="344.947" type="curve"/>
      <point x="100.537" y="366.847"/>
      <point x="81.4463" y="389.351"/>
      <point x="55.418" y="421.044" type="curve"/>
      <point x="66.3281" y="427.543" type="line"/>
      <point x="73.3798" y="423.002"/>
      <point x="115.198" y="398.241"/>
      <point x="188.415" y="398.241" type="curve" smooth="yes"/>
      <point x="212.009" y="398.241"/>
      <point x="231.367" y="400.373"/>
      <point x="245.925" y="401.977" type="curve" smooth="yes"/>
      <point x="254.697" y="402.943"/>
      <point x="261.727" y="403.717"/>
      <point x="266.891" y="403.717" type="curve" smooth="yes"/>
      <point x="295.194" y="403.717"/>
      <point x="325.168" y="346.34"/>
      <point x="325.168" y="324.664" type="curve" smooth="yes"/>
      <point x="325.168" y="312.478"/>
      <point x="311.08" y="300.371"/>
    </contour>
  </outline>
</glyph>
<glyph name="xy_six" format="2">
  <advance width="433"/>
  <unicode hex="E11A"/>
  <outline>
    <contour>
      <point x="21.9014" y="151.255" type="curve" smooth="yes"/>
      <point x="21.9014" y="228.135"/>
      <point x="67.5884" y="273.715"/>
      <point x="108.184" y="314.214" type="curve" smooth="yes"/>
      <point x="140.639" y="346.593"/>
      <point x="169.841" y="375.725"/>
      <point x="169.841" y="415.01" type="curve" smooth="yes"/>
      <point x="169.841" y="427.139"/>
      <point x="167.256" y="440.41"/>
      <point x="161.724" y="455.582" type="curve"/>
      <point x="203.751" y="452.005"/>
      <point x="233.841" y="372.33"/>
      <point x="242.779" y="329.618" type="curve"/>
      <point x="323.419" y="317.381"/>
      <point x="409.778" y="266.045"/>
      <point x="409.778" y="156.874" type="curve" smooth="yes"/>
      <point x="409.778" y="55.791"/>
      <point x="319.158" y="-24.3057"/>
      <point x="201.09" y="-24.3057" type="curve" smooth="yes"/>
      <point x="102.186" y="-24.3057"/>
      <point x="21.9014" y="47.2119"/>
    </contour>
    <contour>
      <point x="240.744" y="296.428" type="curve"/>
      <point x="234.02" y="287.18"/>
      <point x="221.109" y="278.938"/>
      <point x="207.843" y="275.192" type="curve" smooth="yes"/>
      <point x="103.304" y="245.674"/>
      <point x="63.3418" y="201.659"/>
      <point x="63.3418" y="139.93" type="curve" smooth="yes"/>
      <point x="63.3418" y="82.334"/>
      <point x="113.971" y="29.1436"/>
      <point x="182.124" y="29.1436" type="curve" smooth="yes"/>
      <point x="258.825" y="29.1436"/>
      <point x="314.714" y="86.5615"/>
      <point x="314.714" y="162.619" type="curve" smooth="yes"/>
      <point x="314.714" y="221.094"/>
      <point x="286.773" y="272.005"/>
    </contour>
  </outline>
</glyph>
<glyph name="two.lining" format="2">
  <advance width="459"/>
  <unicode hex="E202"/>
  <outline>
    <contour>
      <point x="234.157" y="599.99" type="curve" smooth="yes"/>
      <point x="328.654" y="599.99"/>
      <point x="397.176" y="540.479"/>
      <point x="397.176" y="450.684" type="curve" smooth="yes"/>
      <point x="397.176" y="340.776"/>
      <point x="272.162" y="212.895"/>
      <point x="131.163" y="64.8359" type="curve"/>
      <point x="365.085" y="64.8359" type="line" smooth="yes"/>
      <point x="392.636" y="64.8359"/>
      <point x="398.213" y="72.6748"/>
      <point x="408.998" y="99.2949" type="curve"/>
      <point x="434.268" y="99.2949" type="line"/>
      <point x="414.802" y="29.3779" type="line" smooth="yes"/>
      <point x="411.05" y="16.4805"/>
      <point x="410.307" y="10.9512"/>
      <point x="409.454" y="0.00195312" type="curve"/>
      <point x="56.4189" y="0.00195312" type="line"/>
      <point x="56.4189" y="24.0781" type="line"/>
      <point x="263.18" y="258.086"/>
      <point x="317.392" y="332.889"/>
      <point x="317.392" y="416.204" type="curve" smooth="yes"/>
      <point x="317.392" y="496.177"/>
      <point x="268.484" y="532.381"/>
      <point x="201.884" y="532.381" type="curve" smooth="yes"/>
      <point x="147.429" y="532.381"/>
      <point x="95.1367" y="505.479"/>
      <point x="81.0273" y="457.679" type="curve"/>
      <point x="59.3027" y="457.679" type="line"/>
      <point x="74.9502" y="546.692"/>
      <point x="144.942" y="599.99"/>
    </contour>
  </outline>
</glyph>
<glyph name="three.lining" format="2">
  <advance width="433"/>
  <unicode hex="E203"/>
  <outline>
    <contour>
      <point x="89.4209" y="593.584" type="curve"/>
      <point x="101.097" y="590.178"/>
      <point x="124.852" y="588.718"/>
      <point x="142.677" y="588.718" type="curve" smooth="yes"/>
      <point x="362.025" y="588.718" type="line"/>
      <point x="362.025" y="571.42" type="line"/>
      <point x="197.396" y="392.925" type="line"/>
      <point x="202.943" y="393.265"/>
      <point x="208.43" y="393.435"/>
      <point x="213.849" y="393.435" type="curve" smooth="yes"/>
      <point x="319.11" y="393.435"/>
      <point x="398.838" y="329.265"/>
      <point x="398.838" y="204.157" type="curve" smooth="yes"/>
      <point x="398.838" y="81.0527"/>
      <point x="292.246" y="-8.17969"/>
      <point x="175.252" y="-8.17969" type="curve" smooth="yes"/>
      <point x="102.016" y="-8.17969"/>
      <point x="47.7451" y="18.624"/>
      <point x="47.7451" y="48.8838" type="curve" smooth="yes"/>
      <point x="47.7451" y="66.9766"/>
      <point x="64.3643" y="80.2666"/>
      <point x="87.3535" y="80.2666" type="curve" smooth="yes"/>
      <point x="118.679" y="80.2666"/>
      <point x="157.714" y="52.2471"/>
      <point x="184.169" y="19.5693" type="curve"/>
      <point x="186.745" y="19.3536"/>
      <point x="189.324" y="19.2471"/>
      <point x="191.902" y="19.2471" type="curve" smooth="yes"/>
      <point x="255.498" y="19.2471"/>
      <point x="318.701" y="84.019"/>
      <point x="318.701" y="171.63" type="curve" smooth="yes"/>
      <point x="318.701" y="308.6"/>
      <point x="226.464" y="328.179"/>
      <point x="175.116" y="328.179" type="curve" smooth="yes"/>
      <point x="160.15" y="328.179"/>
      <point x="148.658" y="326.516"/>
      <point x="143.935" y="325.611" type="curve" smooth="yes"/>
      <point x="126.051" y="322.185" type="line"/>
      <point x="111.256" y="334.653" type="line"/>
      <point x="283" y="524" type="line"/>
      <point x="137" y="524" type="line" smooth="yes"/>
      <point x="121" y="524"/>
      <point x="91.6211" y="517.839"/>
      <point x="78.4814" y="481.343" type="curve"/>
      <point x="57.6621" y="481.343" type="line"/>
      <point x="66.3729" y="515.504"/>
      <point x="76" y="541"/>
    </contour>
  </outline>
</glyph>
<glyph name="four.lining" format="2">
  <advance width="559"/>
  <unicode hex="E204"/>
  <outline>
    <contour>
      <point x="356.772" y="601.175" type="line"/>
      <point x="379.071" y="601.175" type="line"/>
      <point x="379.071" y="244.534" type="line"/>
      <point x="481.359" y="244.534" type="line" smooth="yes"/>
      <point x="502.737" y="244.534"/>
      <point x="529.752" y="245.546"/>
      <point x="548.4" y="247.254" type="curve"/>
      <point x="555.714" y="240.114" type="line"/>
      <point x="523.432" y="176.933" type="line"/>
      <point x="508.284" y="179.15"/>
      <point x="491.968" y="179.699"/>
      <point x="465.579" y="179.699" type="curve" smooth="yes"/>
      <point x="379.071" y="179.699" type="line"/>
      <point x="379.071" y="44.6523" type="line" smooth="yes"/>
      <point x="379.071" y="27.584"/>
      <point x="387.325" y="24.2148"/>
      <point x="411.249" y="24.2148" type="curve" smooth="yes"/>
      <point x="461.893" y="24.2148" type="line"/>
      <point x="461.893" y="0.00195312" type="line"/>
      <point x="226.661" y="0" type="line"/>
      <point x="226.661" y="24.2129" type="line"/>
      <point x="265.63" y="24.2129" type="line" smooth="yes"/>
      <point x="289.554" y="24.2129"/>
      <point x="297.809" y="27.582"/>
      <point x="297.809" y="44.6504" type="curve" smooth="yes"/>
      <point x="297.809" y="179.699" type="line"/>
      <point x="88.1709" y="179.699" type="line" smooth="yes"/>
      <point x="61.8926" y="179.699"/>
      <point x="58.9717" y="178.483"/>
      <point x="43.3975" y="168.994" type="curve"/>
      <point x="31.5459" y="177.309" type="line"/>
    </contour>
    <contour>
      <point x="297.809" y="244.534" type="line"/>
      <point x="297.809" y="471.294" type="line"/>
      <point x="120.65" y="244.534" type="line"/>
    </contour>
  </outline>
</glyph>
<glyph name="five.lining" format="2">
  <advance width="416"/>
  <unicode hex="E205"/>
  <outline>
    <contour>
      <point x="141.228" y="588.718" type="line"/>
      <point x="322.38" y="588.718" type="line" smooth="yes"/>
      <point x="346.466" y="588.718"/>
      <point x="352.998" y="592.159"/>
      <point x="359.2" y="605.234" type="curve"/>
      <point x="376.334" y="605.234" type="line"/>
      <point x="354.036" y="545.2" type="line" smooth="yes"/>
      <point x="351.542" y="538.49"/>
      <point x="349.968" y="533.25"/>
      <point x="347.349" y="523.883" type="curve"/>
      <point x="142.448" y="523.883" type="line"/>
      <point x="106.312" y="427.562" type="line"/>
      <point x="307.247" y="408.192"/>
      <point x="378.438" y="324.943"/>
      <point x="378.438" y="214.011" type="curve" smooth="yes"/>
      <point x="378.438" y="86.8643"/>
      <point x="274.781" y="-6.80273"/>
      <point x="151.321" y="-6.80273" type="curve" smooth="yes"/>
      <point x="92.7832" y="-6.80273"/>
      <point x="34.2607" y="11.4199"/>
      <point x="34.2607" y="43.2539" type="curve" smooth="yes"/>
      <point x="34.2607" y="60.5463"/>
      <point x="51.8459" y="73.9547"/>
      <point x="77.7648" y="73.9547" type="curve" smooth="yes"/>
      <point x="104.657" y="73.9547"/>
      <point x="140.522" y="59.5199"/>
      <point x="175.024" y="20.0117" type="curve"/>
      <point x="233.738" y="25.1738"/>
      <point x="305.481" y="69.4033"/>
      <point x="305.481" y="177.055" type="curve" smooth="yes"/>
      <point x="305.481" y="263.036"/>
      <point x="249.695" y="345.56"/>
      <point x="55.9189" y="358.364" type="curve"/>
    </contour>
  </outline>
</glyph>
<glyph name="seven.lining" format="2">
  <advance width="391"/>
  <unicode hex="E207"/>
  <outline>
    <contour>
      <point x="48.4736" y="588.718" type="curve"/>
      <point x="387.884" y="588.718" type="line"/>
      <point x="387.884" y="573.252" type="line"/>
      <point x="278.387" y="356.293" type="line" smooth="yes"/>
      <point x="211.815" y="223.829"/>
      <point x="178.062" y="82.918"/>
      <point x="164.88" y="0.00195312" type="curve"/>
      <point x="102.479" y="0.00195312" type="line"/>
      <point x="119.738" y="81.8418"/>
      <point x="158.016" y="194.525"/>
      <point x="237.704" y="349.77" type="curve" smooth="yes"/>
      <point x="327.081" y="523.884" type="line"/>
      <point x="96.6016" y="523.884" type="line" smooth="yes"/>
      <point x="70.7871" y="523.884"/>
      <point x="57.5811" y="521.604"/>
      <point x="48.8418" y="505.491" type="curve" smooth="yes"/>
      <point x="41.2861" y="491.554" type="line"/>
      <point x="24.9473" y="491.554" type="line"/>
      <point x="41.8525" y="559.08" type="line" smooth="yes"/>
      <point x="44.582" y="568.973"/>
      <point x="47.5244" y="579.468"/>
    </contour>
  </outline>
</glyph>
